<?xml version="1.0" encoding="UTF-8" standalone="no"?>
<svg
   version="1.1"
   width="302"
   height="302"
   id="svg83"
   sodipodi:docname="LecCheck-Logo.svg"
   inkscape:version="1.4.3 (0d15f75042, 2025-12-25)"
   xmlns:inkscape="http://www.inkscape.org/namespaces/inkscape"
   xmlns:sodipodi="http://sodipodi.sourceforge.net/DTD/sodipodi-0.dtd"
   xmlns="http://www.w3.org/2000/svg"
   xmlns:svg="http://www.w3.org/2000/svg">
  <defs
     id="defs83" />
  <sodipodi:namedview
     id="namedview83"
     pagecolor="#ffffff"
     bordercolor="#000000"
     borderopacity="0.25"
     inkscape:showpageshadow="2"
     inkscape:pageopacity="0.0"
     inkscape:pagecheckerboard="0"
     inkscape:deskcolor="#d1d1d1"
     inkscape:zoom="0.4902607"
     inkscape:cx="711.86615"
     inkscape:cy="495.65466"
     inkscape:window-width="2560"
     inkscape:window-height="1043"
     inkscape:window-x="0"
     inkscape:window-y="0"
     inkscape:window-maximized="1"
     inkscape:current-layer="svg83" />
  <g
     id="g83"
     transform="translate(-449.42502,-447.84108)">
    <path
       d="m 0,0 c 9.1680864,5.8980361 16.141883,14.195321 19.540092,24.663799 0.633191,3.21643 0.582471,6.296253 0.580163,9.574787 8.54e-4,0.73029 0.0017,1.46058 0.0026,2.213 0.0016,2.447478 -0.0039,4.894888 -0.0093,7.342359 -2.82e-4,1.754263 -1.23e-4,3.508525 4.43e-4,5.262787 2.87e-4,4.764084 -0.0056,9.528144 -0.01257,14.292222 -0.0062,4.978143 -0.0068,9.956286 -0.008,14.934432 -0.0031,9.427603 -0.01132,18.855194 -0.02135,28.282794 -0.01117,10.73265 -0.01667,21.46531 -0.0217,32.19797 C 20.039867,160.84277 20.022275,182.92139 20,205 c 0.934837,-0.003 1.869674,-0.006 2.832839,-0.008 22.7605,-0.0666 45.520986,-0.11592 68.281563,-0.14706 11.006908,-0.0155 22.013748,-0.0365 33.020608,-0.0709 9.59505,-0.0299 19.19006,-0.0493 28.78516,-0.056 5.0792,-0.004 10.15826,-0.0131 15.23741,-0.0349 4.78438,-0.0204 9.56857,-0.0266 14.35299,-0.0221 1.7523,-8.3e-4 3.50461,-0.007 5.25688,-0.0183 12.35138,-0.0773 21.90851,0.95309 32.23255,8.35762 0.60844,0.43055 1.21687,0.86109 1.84375,1.30469 6.69786,5.19965 10.93099,12.57005 13.15625,20.69531 1.10964,12.16284 -0.62556,21.81155 -7.99609,31.61328 C 219.53123,275.51348 210.6221,281.17126 199,283 c -2.93787,0.099 -5.85213,0.14783 -8.78992,0.14717 -0.88531,0.004 -1.77063,0.007 -2.68277,0.0111 -2.96679,0.011 -5.93355,0.0149 -8.90036,0.0187 -2.1274,0.006 -4.2548,0.0129 -6.3822,0.0199 -6.98782,0.021 -13.97565,0.0314 -20.9635,0.0414 -2.40837,0.004 -4.81674,0.008 -7.22511,0.0124 -11.31785,0.019 -22.63569,0.0333 -33.95355,0.0416 -13.049278,0.01 -26.098382,0.0361 -39.147595,0.0765 -10.095339,0.0302 -20.190629,0.045 -30.286012,0.0483 -6.024946,0.002 -12.04971,0.0113 -18.074607,0.0365 -5.673398,0.0233 -11.346495,0.0275 -17.0199284,0.0172 -2.0747528,-4.9e-4 -4.1495208,0.006 -6.22422787,0.0196 C -15.938114,283.58608 -29.327843,283.16275 -41,272 c -0.710273,-0.67031 -1.420547,-1.34063 -2.152344,-2.03125 -8.686006,-8.92863 -11.997514,-19.53199 -11.994827,-31.7278 -0.0055,-1.34106 -0.0055,-1.34106 -0.01114,-2.7092 -0.01103,-3.00221 -0.01488,-6.00438 -0.01869,-9.0066 -0.0063,-2.15021 -0.01291,-4.30041 -0.01991,-6.45061 -0.02104,-7.06781 -0.0314,-14.13562 -0.04137,-21.20345 -0.004,-2.4341 -0.0082,-4.86821 -0.01235,-7.30232 -0.01905,-11.43745 -0.03328,-22.87489 -0.04161,-34.31235 -0.0098,-13.1959 -0.03608,-26.39162 -0.0765,-39.58746 -0.03018,-10.20314 -0.04497,-20.406232 -0.04828,-30.609418 -0.0023,-6.091965 -0.01128,-12.183752 -0.03646,-18.275669 -0.02332,-5.734936 -0.0275,-11.469574 -0.01724,-17.204544 4.94e-4,-2.099781 -0.0058,-4.199576 -0.01956,-6.299311 C -55.587992,29.472299 -54.423117,17.904311 -43,6 -31.314188,-4.911451 -14.227595,-8.2872076 0,0 Z"
       fill="#5c587b"
       transform="translate(509,461)"
       id="path4" />
    <path
       d="m 0,0 c 8.8273329,5.1700851 13.710266,11.443775 16.347656,21.375 1.431495,8.458833 -0.954545,15.569138 -5,23 -2.5084052,3.40181 -5.0735398,5.922204 -8.3710935,8.558594 -1.8572292,1.643447 -3.40260751,3.423299 -5.0039063,5.316406 -2.9334352,3.45034 -6.0902992,6.328765 -9.5437232,9.245586 -1.980176,1.788119 -3.681143,3.62824 -5.405145,5.660969 -3.358288,3.889309 -6.87006,7.572824 -10.494247,11.213562 -0.962492,0.972349 -0.962492,0.972349 -1.944427,1.96434 -2.095831,2.115327 -4.195472,4.226808 -6.296051,6.337418 -0.722777,0.726852 -1.445554,1.453705 -2.190234,2.202583 -3.818808,3.839558 -7.640805,7.675912 -11.465284,11.509822 -3.936833,3.94793 -7.861838,7.90742 -11.784377,11.86955 -3.032891,3.05906 -6.074661,6.10918 -9.118869,9.15697 -1.450965,1.45583 -2.898564,2.91501 -4.342632,4.37768 -2.021481,2.0459 -4.055313,4.07873 -6.092501,6.10898 -0.58674,0.59955 -1.17348,1.1991 -1.778,1.81682 -4.541206,4.48536 -9.479202,7.97951 -15.85701,9.15681 -8.198016,-0.20772 -13.609156,-1.52073 -19.499996,-7.43359 -0.99387,-1.06541 -0.99387,-1.06541 -2.00782,-2.15234 -1.83148,-2.03449 -1.83148,-2.03449 -4.36718,-3.91016 -2.96168,-2.4301 -5.26914,-5.21641 -7.75,-8.125 -1.71616,-2.00898 -1.71616,-2.00898 -4.1875,-3.875 -2.22698,-1.78158 -3.80281,-3.45736 -5.625,-5.625 -3.77956,-4.44555 -8.04064,-8.23536 -12.42188,-12.07812 -2.45312,-2.29688 -2.45312,-2.29688 -4.09375,-4.53125 -1.32857,-2.0658 -1.32857,-2.0658 -4.35937,-2.76563 -6.54847,-8.847922 -9.04305,-17.054737 -8,-28 1.74373,-8.706951 5.95925,-14.655683 13,-20 6.89686,-4.176497 14.06765,-5.041188 22,-4 10.37765,2.761927 17.36978,11.245259 24.60546,18.667969 2.37807,2.402681 2.37807,2.402681 5.19532,4.507812 0.72574,0.601992 1.45148,1.203985 2.19922,1.824219 0,0.66 0,1.32 0,2 2.4448,-0.188288 2.4448,-0.188288 4.999996,-1 0.702666,-1.314718 1.365841,-2.650902 2,-4 1.26732,-1.527382 1.26732,-1.527382 2.723526,-2.997681 0.553491,-0.563466 1.106983,-1.126932 1.677246,-1.707473 0.60517,-0.605835 1.210339,-1.211669 1.833847,-1.835862 0.639325,-0.647648 1.27865,-1.295296 1.937348,-1.96257 2.115609,-2.139706 4.238802,-4.271675 6.36319,-6.402664 1.477813,-1.486782 2.955549,-2.97364 4.433212,-4.460571 3.100811,-3.117304 6.205993,-6.230184 9.313614,-9.340699 3.97065,-3.976025 7.924909,-7.967931 11.875313,-11.964057 3.048257,-3.078084 6.107789,-6.14477 9.170492,-9.208474 1.46205,-1.466243 2.919998,-2.936588 4.373645,-4.411163 2.041003,-2.068024 4.097416,-4.1194692 6.158186,-6.1677704 0.8865,-0.9087513 0.8865,-0.9087513 1.790909,-1.8358612 C -25.372495,-3.3851533 -12.410431,-5.8117138 0,0 Z"
       fill="#6ea6b4"
       transform="translate(735.65234,463.625)"
       id="path5" />
    <path
       d="M 0,0 C 0.495,0.99 0.495,0.99 1,2 1.66,2 2.32,2 3,2 3,2.66 3,3.32 3,4 2.01,4.33 1.02,4.66 0,5 c -1.7145234,1.6915374 -1.7145234,1.6915374 -3.375,3.75 -3.7458898,4.404163 -7.614046,8.426067 -12.0625,12.125 -3.138814,2.638522 -5.731362,5.518135 -8.300781,8.707031 C -25,31 -25,31 -27,32 c -0.33,0.99 -0.66,1.98 -1,3 -1.98,0 -3.96,0 -6,0 4.027481,-4.832988 8.243794,-9.3811 12.710938,-13.808594 0.919499,-0.917377 0.919499,-0.917377 1.857574,-1.853286 1.933134,-1.927596 3.869738,-3.851659 5.806488,-5.77562 1.321847,-1.316824 2.643464,-2.633879 3.9648437,-3.9511719 C -6.442757,6.4048763 -3.2222432,3.2015837 0,0 Z"
       fill="#7ea8ae"
       transform="translate(689,482)"
       id="path6" />
    <path
       d="M 0,0 C 0.66,0.66 1.32,1.32 2,2 -1.1136861,7.7711544 -4.0162165,12.463166 -9.2148438,16.507812 -11.218498,18.18264 -12.817171,20.004699 -14.5,22 c -3.204655,3.778732 -6.664253,6.868778 -10.5,10 0.68089,-2.919852 1.581012,-5.351223 3,-8 0.66,0 1.32,0 2,0 0.106348,-1.150488 0.106348,-1.150488 0.214844,-2.324219 C -19,19 -19,19 -16.933594,17.417969 c 1.235567,-0.609082 1.235567,-0.609082 2.496094,-1.230469 0.826289,-0.418945 1.652578,-0.837891 2.503906,-1.269531 C -11.295508,14.615039 -10.657422,14.312109 -10,14 c 0,-0.99 0,-1.98 0,-3 1.2621304,-3.7863913 2.6534535,-4.041046 6,-6 0.66,-0.99 1.32,-1.98 2,-3 0.66,0 1.32,0 2,0 C 0,1.34 0,0.68 0,0 Z"
       fill="#7ea8af"
       transform="translate(748,500)"
       id="path7" />
    <path
       d="M 0,0 C 0.8971875,0.309375 0.8971875,0.309375 1.8125,0.625 1.0158594,1.2998242 1.0158594,1.2998242 0.203125,1.9882812 c -8.0009906,7.2855736 -10.584144,15.1920078 -11.3125,25.8359378 -0.02578,0.594258 -0.05156,1.188515 -0.07813,1.800781 -0.33,0 -0.66,0 -1,0 -0.33,-1.98 -0.66,-3.96 -1,-6 -0.33,0 -0.66,0 -1,0 0,-1.98 0,-3.96 0,-6 0.66,0 1.32,0 2,0 0,-1.32 0,-2.64 0,-4 0.66,0 1.32,0 2,0 -0.33,-1.65 -0.66,-3.3 -1,-5 0.99,-0.66 1.98,-1.32 3,-2 0.495,-0.825 0.99,-1.65 1.5,-2.5 C -4.9203197,1.1796995 -3.6282765,-0.62199026 0,0 Z"
       fill="#eaf8f9"
       transform="translate(576.1875,514.375)"
       id="path8" />
    <path
       d="M 0,0 C 2.5407444,0.98747419 3.7870172,1.664092 5.265625,3.9960938 7.8182428,10.326991 8.9774763,16.169032 8,23 7.34,23.99 6.68,24.98 6,26 4.5021424,21.849686 3.5874587,17.931724 3,13.5625 2.3242425,8.875103 1.4647652,4.4989216 0,0 Z"
       fill="#7ba6ad"
       transform="translate(744,473)"
       id="path9" />
    <path
       d="m 0,0 c 0.66,0.66 1.32,1.32 2,2 -5.61,5.61 -11.22,11.22 -17,17 -0.33,-1.32 -0.66,-2.64 -1,-4 0.99,-0.33 1.98,-0.66 3,-1 -0.66,-1.32 -1.32,-2.64 -2,-4 0.9075,-0.04125 1.815,-0.0825 2.75,-0.125 C -7.9258492,8.7108056 -7.2810683,6.7257449 -5,3 -2.8125,1.6875 -2.8125,1.6875 -1,1 -0.67,0.67 -0.34,0.34 0,0 Z"
       fill="#e9f5f7"
       transform="translate(704,464)"
       id="path10" />
    <path
       d="m 0,0 c 0.99,0.33 1.98,0.66 3,1 -6.6,6.6 -13.2,13.2 -20,20 -0.33,-0.99 -0.66,-1.98 -1,-3 0.99,-1.485 0.99,-1.485 2,-3 0.66,0 1.32,0 2,0 0.33,-0.99 0.66,-1.98 1,-3 1.46042,-1.265698 2.925964,-2.5272914 4.4414062,-3.7265625 C -6.8174997,6.9001856 -6.8174997,6.9001856 -4.75,4.6875 -3,3 -3,3 -1,3 -0.67,2.01 -0.34,1.02 0,0 Z"
       fill="#86adb4"
       transform="translate(695,557)"
       id="path11" />
    <path
       d="M 0,0 C 9.8081195,-0.5974489 16.852573,0.44187806 24.5625,6.75 25.366875,7.4925 26.17125,8.235 27,9 25.3125,9.8125 25.3125,9.8125 23,10 21.311261,8.3557017 19.646945,6.6861578 18,5 13.701971,3.2255281 9.7470965,2.6579855 5.125,2.375 3.9725781,2.3002344 2.8201563,2.2254688 1.6328125,2.1484375 0.32957031,2.0749609 0.32957031,2.0749609 -1,2 -0.67,1.34 -0.34,0.68 0,0 Z"
       fill="#83a8af"
       transform="translate(588,510)"
       id="path12" />
    <path
       d="M 0,0 C 5.5416667,0.48188406 5.5416667,0.48188406 7.4375,2.625 8.2165447,5.9143 7.5327569,8.6850683 7,12 7.3465929,14.321581 7.3465929,14.321581 8,16 3.7613738,12.518271 1.7629795,8.0920101 0,3 0,2.01 0,1.02 0,0 Z"
       fill="#625d7b"
       transform="translate(456,712)"
       id="path13" />
    <path
       d="m 0,0 c 1.32,0.66 2.64,1.32 4,2 -4.62,4.62 -9.24,9.24 -14,14 -1,-3 -1,-3 0,-6 0.66,0 1.32,0 2,0 0,-0.66 0,-1.32 0,-2 0.66,0 1.32,0 2,0 0,-0.66 0,-1.32 0,-2 0.99,-0.33 1.98,-0.66 3,-1 0.33,-0.99 0.66,-1.98 1,-3 0.66,0 1.32,0 2,0 C 0,1.34 0,0.68 0,0 Z"
       fill="#e8f5f7"
       transform="translate(683,483)"
       id="path14" />
    <path
       d="m 0,0 c 4.5008243,1.5002748 7.3422594,3.0133891 10,7 0.99,0.33 1.98,0.66 3,1 0.33,0.99 0.66,1.98 1,3 0.66,0.33 1.32,0.66 2,1 0,0.99 0,1.98 0,3 C 12.134471,13.374825 9.3970187,10.866982 6.3125,8.0625 5.3392578,7.1872266 4.3660156,6.3119531 3.3632813,5.4101562 1,3 1,3 0,0 Z"
       fill="#80a9ae"
       transform="translate(608,594)"
       id="path15" />
    <path
       d="M 0,0 C 1.3148438,-0.00257813 2.6296875,-0.00515625 3.984375,-0.0078125 7.25,0.125 7.25,0.125 9.25,1.125 c 0.625,2.0625 0.625,2.0625 1,4 -1.010625,-0.33 -2.02125,-0.66 -3.0625,-1 -6.4875484,-1.6658804 -13.2913803,-1.1557684 -19.9375,-1 -0.33,-0.66 -0.66,-1.32 -1,-2 C -9.1182837,0.21879464 -4.7163773,-0.0093209 0,0 Z"
       fill="#e2f5f8"
       transform="translate(725.75,458.875)"
       id="path16" />
    <path
       d="M 0,0 C 0.33,1.32 0.66,2.64 1,4 0.01,4.33 -0.98,4.66 -2,5 -2.1533984,5.6239062 -2.3067969,6.2478125 -2.4648438,6.890625 -3.1617459,9.6375385 -4.2286852,10.222412 -6.5625,11.75 -7.2031641,12.177969 -7.8438281,12.605938 -8.5039063,13.046875 -9.2444727,13.518672 -9.2444727,13.518672 -10,14 -10.66,13.34 -11.32,12.68 -12,12 -8.04,8.04 -4.08,4.08 0,0 Z"
       fill="#82aab1"
       transform="translate(654,517)"
       id="path17" />
    <path
       d="m 0,0 c 2.625,0.9375 2.625,0.9375 5,2 -3.3810038,4.1362108 -6.6659053,7.8131657 -11,11 0,-0.99 0,-1.98 0,-3 0.66,0 1.32,0 2,0 0.66,-1.65 1.32,-3.3 2,-5 0.66,0 1.32,0 2,0 C -0.66,3.68 -1.32,2.36 -2,1 -1.34,0.67 -0.68,0.34 0,0 Z"
       fill="#eaf6f8"
       transform="translate(667,497)"
       id="path18" />
    <path
       d="M 0,0 C 1.3520891,0.62775567 2.6816371,1.3041973 4,2 5.9922056,2.6896096 7.9910561,3.3607906 10,4 9.67,4.99 9.34,5.98 9,7 6.8125,7.8125 6.8125,7.8125 4,8 1.4358829,5.8438106 -0.49549813,4.0090037 -2,1 -1.34,0.67 -0.68,0.34 0,0 Z"
       fill="#e4f7f9"
       transform="translate(628,529)"
       id="path19" />
    <path
       d="M 0,0 C 0.66,0 1.32,0 2,0 2.2475,0.886875 2.495,1.77375 2.75,2.6875 4.0414702,6.1098959 5.6789532,8.2147439 8,11 c 0,0.66 0,1.32 0,2 0.66,0.33 1.32,0.66 2,1 C 9.67,14.66 9.34,15.32 9,16 8.34,16 7.68,16 7,16 3.3956321,11.162307 0.32301201,6.1372281 0,0 Z"
       fill="#8baeb5"
       transform="translate(566,546)"
       id="path21" />
    <path
       d="M 0,0 C 0.66,0.33 1.32,0.66 2,1 1.5359375,2.175625 1.5359375,2.175625 1.0625,3.375 -0.26335807,7.8985158 -0.64811085,12.314318 -1,17 c -0.33,0 -0.66,0 -1,0 -0.33,-1.98 -0.66,-3.96 -1,-6 -0.33,0 -0.66,0 -1,0 0,-1.98 0,-3.96 0,-6 0.66,0 1.32,0 2,0 0,-1.32 0,-2.64 0,-4 0.66,-0.33 1.32,-0.66 2,-1 z"
       fill="#dff1f4"
       transform="translate(566,527)"
       id="path22" />
    <path
       d="m 0,0 c 0.99,0.66 1.98,1.32 3,2 -3.63,3.63 -7.26,7.26 -11,11 -0.33,-0.99 -0.66,-1.98 -1,-3 0.66,0 1.32,0 2,0 0,-0.66 0,-1.32 0,-2 0.66,0 1.32,0 2,0 0,-0.66 0,-1.32 0,-2 0.66,0 1.32,0 2,0 C -2.814375,4.7934375 -2.814375,4.7934375 -2.625,3.5625 -2.41875,2.716875 -2.2125,1.87125 -2,1 -1.34,0.67 -0.68,0.34 0,0 Z"
       fill="#8ab0b7"
       transform="translate(713,538)"
       id="path24" />
    <path
       d="M 0,0 C 2,1 2,1 3.1875,3.3125 4.0362475,6.1198957 3.9992833,7.301935 3,10 0.03,9.505 0.03,9.505 -3,9 -1.125,2.25 -1.125,2.25 0,0 Z"
       fill="#68667d"
       transform="translate(524,478)"
       id="path25" />
    <path
       d="M 0,0 C 0.66,0.66 1.32,1.32 2,2 -0.97,4.97 -3.94,7.94 -7,11 -7.99,10.67 -8.98,10.34 -10,10 -8.9003323,8.704501 -7.795082,7.4137393 -6.6875,6.125 -6.0726172,5.4057031 -5.4577344,4.6864062 -4.8242187,3.9453125 -3,2 -3,2 0,0 Z"
       fill="#e7f9fa"
       transform="translate(725,530)"
       id="path26" />
    <path
       d="m 0,0 c 0.33,0.66 0.66,1.32 1,2 -1.92529733,4.1714775 -4.0418649,5.8230257 -8,8 -1.7514917,1.582453 -1.7514917,1.582453 -3,3 -0.66,-0.33 -1.32,-0.66 -2,-1 C -8.04,8.04 -4.08,4.08 0,0 Z"
       fill="#e5f9fa"
       transform="translate(671,584)"
       id="path27" />
    <path
       d="M 0,0 C 0.66,0.66 1.32,1.32 2,2 1.360625,2.598125 0.72125,3.19625 0.0625,3.8125 -2.2031039,5.9081034 -2.2031039,5.9081034 -3,9 -6.5625,10.1875 -6.5625,10.1875 -10,11 -6.7923975,7.193645 -3.5925389,3.4543643 0,0 Z"
       fill="#e3f4f6"
       transform="translate(658,597)"
       id="path28" />
    <path
       d="M 0,0 C 2,2 2,2 2,5 2.99,5 3.98,5 5,5 5,5.66 5,6.32 5,7 5.928125,7.2165625 5.928125,7.2165625 6.875,7.4375 9,8 9,8 11,9 c 0,0.66 0,1.32 0,2 C 5.7889115,9.6351911 2.8340868,7.6557571 -1,4 -1.33,3.01 -1.66,2.02 -2,1 -1.34,0.67 -0.68,0.34 0,0 Z"
       fill="#84acb1"
       transform="translate(580,563)"
       id="path29" />
    <path
       d="M 0,0 C 4.455,0.99 4.455,0.99 9,2 9,2.66 9,3.32 9,4 9.99,4.66 10.98,5.32 12,6 7.0269348,5.5026935 3.3620019,4.4469767 -1,2 -0.67,1.34 -0.34,0.68 0,0 Z"
       fill="#77758a"
       transform="translate(477,737)"
       id="path30" />
    <path
       d="M 0,0 C 0.99,0.99 1.98,1.98 3,3 0.75552339,5.5811481 -0.7493136,6.1873284 -4,7 -5.730261,8.4789007 -5.730261,8.4789007 -7,10 -7,7 -7,7 -5.46875,5.1757812 -4.8190625,4.5608984 -4.169375,3.9460156 -3.5,3.3125 -2.8503125,2.6898828 -2.200625,2.0672656 -1.53125,1.4257812 -0.77328125,0.72001953 -0.77328125,0.72001953 0,0 Z"
       fill="#ebfbfb"
       transform="translate(693,562)"
       id="path31" />
    <path
       d="M 0,0 C -1.4345733,0.9834496 -2.8727741,1.9616092 -4.3125,2.9375 -5.1130078,3.4827734 -5.9135156,4.0280469 -6.7382812,4.5898437 -9,6 -9,6 -12,7 c 0.33,-0.99 0.66,-1.98 1,-3 0.66,0 1.32,0 2,0 0,-0.66 0,-1.32 0,-2 3.4084099,-2.55630744 4.9645314,-3.2847966 9,-2 z"
       fill="#6d6a7f"
       transform="translate(730,734)"
       id="path33" />
    <path
       d="M 0,0 C 0.33,1.32 0.66,2.64 1,4 -1.97,6.475 -1.97,6.475 -5,9 -5.33,8.01 -5.66,7.02 -6,6 c 0.33,-0.66 0.66,-1.32 1,-2 0.66,0 1.32,0 2,0 0.33,-0.99 0.66,-1.98 1,-3 0.66,-0.33 1.32,-0.66 2,-1 z"
       fill="#7eaaad"
       transform="translate(703,548)"
       id="path34" />
    <path
       d="M 0,0 C 0.99,0.33 1.98,0.66 3,1 1.35,2.98 -0.3,4.96 -2,7 -3.32,6.67 -4.64,6.34 -6,6 c 0.33,-0.66 0.66,-1.32 1,-2 0.66,0 1.32,0 2,0 0.33,-0.99 0.66,-1.98 1,-3 0.66,-0.33 1.32,-0.66 2,-1 z"
       fill="#7ea9af"
       transform="translate(719,532)"
       id="path35" />
    <path
       d="M 0,0 C 7.4829157,6.1503417 7.4829157,6.1503417 10,10 5.0768581,8.7692145 2.7348181,7.3125977 0,3 0,2.01 0,1.02 0,0 Z"
       fill="#7ea7ad"
       transform="translate(615,520)"
       id="path36" />
    <path
       d="M 0,0 C 1.3651172,0.29197266 1.3651172,0.29197266 2.7578125,0.58984375 3.4564844,0.74582031 4.1551562,0.90179688 4.875,1.0625 c 0,0.33 0,0.66 0,1 -3.96,0.66 -7.92,1.32 -12,2 0,-1.32 0,-2.64 0,-4 C -4.4030754,-1.2984623 -2.9418043,-0.64116248 0,0 Z"
       fill="#64607c"
       transform="translate(486.125,458.9375)"
       id="path37" />
    <path
       d="m 0,0 c 0.94875,0.350625 1.8975,0.70125 2.875,1.0625 0,0.99 0,1.98 0,3 -2.60582371,0.9306513 -3.64198224,1.1491741 -6.25,0.0625 -0.5775,-0.350625 -1.155,-0.70125 -1.75,-1.0625 0,-0.99 0,-1.98 0,-3 2,-1 2,-1 5.125,-0.0625 z"
       fill="#f4f3f7"
       transform="translate(477.125,738.9375)"
       id="path39" />
    <path
       d="M 0,0 C 0.66,0.33 1.32,0.66 2,1 -0.97,3.97 -3.94,6.94 -7,10 -7.33,9.34 -7.66,8.68 -8,8 -7.0625,5.875 -7.0625,5.875 -6,4 -5.34,4 -4.68,4 -4,4 -3.67,3.01 -3.34,2.02 -3,1 -2.01,0.67 -1.02,0.34 0,0 Z"
       fill="#84a9b5"
       transform="translate(662,591)"
       id="path40" />
    <path
       d="M 0,0 C 1.98,1.65 3.96,3.3 6,5 5.01,5.66 4.02,6.32 3,7 2.01,6.67 1.02,6.34 0,6 0,5.34 0,4.68 0,4 -0.66,4 -1.32,4 -2,4 -2,3.34 -2,2.68 -2,2 -1.34,2 -0.68,2 0,2 0,1.34 0,0.68 0,0 Z"
       fill="#e1f4f3"
       transform="translate(591,578)"
       id="path42" />
    <path
       d="M 0,0 C 0.99,0.66 1.98,1.32 3,2 0.36,4.64 -2.28,7.28 -5,10 -6,7 -6,7 -4.6875,4.3125 -4.130625,3.549375 -3.57375,2.78625 -3,2 c 0.66,0 1.32,0 2,0 0.33,-0.66 0.66,-1.32 1,-2 z"
       fill="#8bb1b9"
       transform="translate(729,522)"
       id="path43" />
    <path
       d="M 0,0 C 0.66,0.33 1.32,0.66 2,1 1.375,2.9375 1.375,2.9375 0,5 -3.125,5.75 -3.125,5.75 -6,6 -6,5.01 -6,4.02 -6,3 -4.0353359,1.9322478 -2.0314464,0.93446535 0,0 Z"
       fill="#e3f5f8"
       transform="translate(646,608)"
       id="path45" />
    <path
       d="M 0,0 C 0.66,0.33 1.32,0.66 2,1 1.67,3.64 1.34,6.28 1,9 0.67,8.01 0.34,7.02 0,6 -1.98,6.99 -1.98,6.99 -4,8 -2.8754827,5.0280615 -1.7770621,2.6655931 0,0 Z"
       fill="#69657d"
       transform="translate(461,473)"
       id="path46" />
    <path
       d="M 0,0 C 3.0487245,1.0162415 5.3740394,2.1547304 8,4 8,4.99 8,5.98 8,7 4.5967926,5.9882356 3.2427467,5.3515642 1.1875,2.375 0.795625,1.59125 0.40375,0.8075 0,0 Z"
       fill="#87aeb3"
       transform="translate(608,594)"
       id="path48" />
    <path
       d="M 0,0 C 0.99,0.33 1.98,0.66 3,1 0.36,3.64 -2.28,6.28 -5,9 -5.33,7.68 -5.66,6.36 -6,5 -1.6054687,0.99609375 -1.6054687,0.99609375 0,0 Z"
       fill="#e7f7f8"
       transform="translate(646,522)"
       id="path49" />
    <path
       d="M 0,0 C 0.99,0 1.98,0 3,0 3,1.65 3,3.3 3,5 2.34,4.67 1.68,4.34 1,4 0.67,4.99 0.34,5.98 0,7 -1.32,6.67 -2.64,6.34 -4,6 -2.1875,3 -2.1875,3 0,0 Z"
       fill="#eceaf2"
       transform="translate(740,720)"
       id="path50" />
    <path
       d="M 0,0 C 2.475,0.495 2.475,0.495 5,1 5,2.65 5,4.3 5,6 3.68,5.67 2.36,5.34 1,5 0.67,3.35 0.34,1.7 0,0 Z"
       fill="#f2f1f6"
       transform="translate(738,682)"
       id="path51" />
    <path
       d="M 0,0 C 0,1.32 0,2.64 0,4 -1.65,4.66 -3.3,5.32 -5,6 -5.33,4.68 -5.66,3.36 -6,2 -2.25,0 -2.25,0 0,0 Z"
       fill="#76a6aa"
       transform="translate(735,517)"
       id="path54" />
    <path
       d="M 0,0 C 2.6875,0.875 2.6875,0.875 5,2 2.3780123,4.1537756 0.35595828,5.4007217 -3,6 -3,4.68 -3,3.36 -3,2 -2.01,1.34 -1.02,0.68 0,0 Z"
       fill="#eeedf2"
       transform="translate(476,456)"
       id="path55" />
    <path
       d="M 0,0 C 1.32,0.33 2.64,0.66 4,1 1.6875,3.5 1.6875,3.5 -1,6 -1.99,6 -2.98,6 -4,6 -3.67,5.01 -3.34,4.02 -3,3 -2.34,3 -1.68,3 -1,3 -0.67,2.01 -0.34,1.02 0,0 Z"
       fill="#80a9ae"
       transform="translate(669,582)"
       id="path56" />
    <path
       d="M 0,0 C 4.875,4.625 4.875,4.625 6,8 5.01,8.495 5.01,8.495 4,9 4,8.01 4,7.02 4,6 3.34,6 2.68,6 2,6 1.67,6.66 1.34,7.32 1,8 0,2.25 0,2.25 0,0 Z"
       fill="#6e6c82"
       transform="translate(733,678)"
       id="path58" />
    <path
       d="M 0,0 C 3.2420857,0.35049575 4.615277,0.56221181 6.8125,3.0625 7.204375,3.701875 7.59625,4.34125 8,5 7.01,5.33 6.02,5.66 5,6 4.67,5.34 4.34,4.68 4,4 1.9833017,2.8664947 1.9833017,2.8664947 0,2 0,1.34 0,0.68 0,0 Z"
       fill="#7ea5ac"
       transform="translate(736,466)"
       id="path59" />
    <path
       d="M 0,0 C 0,0.99 0,1.98 0,3 -0.66,3.66 -1.32,4.32 -2,5 -2.6476779,7.5706131 -2.6476779,7.5706131 -3,10 -3.99,9.34 -4.98,8.68 -6,8 -6,7.34 -6,6.68 -6,6 -5.34,6 -4.68,6 -4,6 -3.71125,5.38125 -3.4225,4.7625 -3.125,4.125 -2,2 -2,2 0,0 Z"
       fill="#82acb4"
       transform="translate(641,530)"
       id="path61" />
    <path
       d="M 0,0 C 0,2.6211371 -0.31292445,4.5093511 -1,7 -2.98,7.33 -4.96,7.66 -7,8 -6.0213366,6.8537368 -5.0420541,5.7080021 -4.0625,4.5625 -3.5172266,3.9244141 -2.9719531,3.2863281 -2.4101563,2.6289063 -1.632043,1.7300885 -0.84063472,0.84063472 0,0 Z"
       fill="#83a8b0"
       transform="translate(697,474)"
       id="path62" />
    <path
       d="M 0,0 C 2.64,0.33 5.28,0.66 8,1 8,1.66 8,2.32 8,3 5.03,3 2.06,3 -1,3 -0.67,2.01 -0.34,1.02 0,0 Z"
       fill="#e5f8fc"
       transform="translate(590,507)"
       id="path66" />
    <path
       d="M 0,0 C 2,3 2,3 2,6 1.01,6 0.02,6 -1,6 -1.33,6.66 -1.66,7.32 -2,8 -2.33,7.01 -2.66,6.02 -3,5 -1.5625,2.3125 -1.5625,2.3125 0,0 Z"
       fill="#6c6a80"
       transform="translate(741,690)"
       id="path70" />
    <path
       d="M 0,0 C 0.99,0.66 1.98,1.32 3,2 1.1875,4 1.1875,4 -1,6 -1.99,6 -2.98,6 -4,6 -2.8482665,3.5319995 -1.9521644,1.9521644 0,0 Z"
       fill="#7ea5ab"
       transform="translate(651,600)"
       id="path71" />
    <path
       d="M 0,0 C 0.66,0.33 1.32,0.66 2,1 1.3125,2.9375 1.3125,2.9375 0,5 -2.625,5.75 -2.625,5.75 -5,6 -3.35,4.02 -1.7,2.04 0,0 Z"
       fill="#8aabb4"
       transform="translate(578,514)"
       id="path72" />
    <path
       d="M 0,0 C 1.65,0 3.3,0 5,0 3.7193751,1.7074998 2.3823244,3.373736 1,5 0.34,5 -0.32,5 -1,5 -0.67,3.35 -0.34,1.7 0,0 Z"
       fill="#77a4aa"
       transform="translate(708,464)"
       id="path73" />
    <path
       d="M 0,0 C 0.99,0.33 1.98,0.66 3,1 3.7304688,2.8476563 3.7304688,2.8476563 4.1875,5.0625 4.3460547,5.7959766 4.5046094,6.5294531 4.6679687,7.2851562 4.8323242,8.1340039 4.8323242,8.1340039 5,9 1.7457985,6.1656955 0.4793247,4.3139223 0,0 Z"
       fill="#6c697b"
       transform="translate(459,719)"
       id="path76" />
    <path
       d="M 0,0 C 1.65,0.33 3.3,0.66 5,1 3,3 3,3 0,5 -0.99,4.67 -1.98,4.34 -3,4 -2.01,2.68 -1.02,1.36 0,0 Z"
       fill="#73a1aa"
       transform="translate(642,530)"
       id="path77" />
    <path
       d="M 0,0 C 1,4 1,4 -0.4375,6.75 -1.2109375,7.86375 -1.2109375,7.86375 -2,9 -2.66,8.67 -3.32,8.34 -4,8 -2.68,5.36 -1.36,2.72 0,0 Z"
       fill="#86acb2"
       transform="translate(570,522)"
       id="path78" />
    <path
       d="M 0,0 C 0.33,0 0.66,0 1,0 1.25,3.3125 1.25,3.3125 1,7 -0.32,7.99 -1.64,8.98 -3,10 -2.01,6.7 -1.02,3.4 0,0 Z"
       fill="#d5eff1"
       transform="translate(751,496)"
       id="path79" />
    <path
       d="M 0,0 C 0.99,0 1.98,0 3,0 3,3 3,3 1,6 0.34,6 -0.32,6 -1,6 -1.625,4.125 -1.625,4.125 -2,2 -1.34,1.34 -0.68,0.68 0,0 Z"
       fill="#7ca9b3"
       transform="translate(700,471)"
       id="path80" />
  </g>
</svg>
