<?xml version="1.0" encoding="UTF-8"?>
<svg version="1.1" xmlns="http://www.w3.org/2000/svg" width="1200" height="1200">
<path d="M0 0 C396 0 792 0 1200 0 C1200 396 1200 792 1200 1200 C804 1200 408 1200 0 1200 C0 804 0 408 0 0 Z " fill="#7B829D" transform="translate(0,0)"/>
<path d="M0 0 C0.66 0 1.32 0 2 0 C2 0.66 2 1.32 2 2 C2.8353125 2.37125 2.8353125 2.37125 3.6875 2.75 C7.62640804 4.87913948 10.55694029 6.67082087 12 11 C12.66 11.33 13.32 11.66 14 12 C14 12.66 14 13.32 14 14 C14.5775 14.061875 15.155 14.12375 15.75 14.1875 C18.89829784 15.32438533 19.98091594 17.36907229 22 20 C23.66270287 21.33827304 25.32916181 22.67189785 27 24 C30 27.51724138 30 27.51724138 30 30 C30.88969482 30.39964966 30.88969482 30.39964966 31.79736328 30.80737305 C34.04546376 32.02461654 35.47070653 33.25399063 37.2421875 35.08203125 C37.83386719 35.68466797 38.42554688 36.28730469 39.03515625 36.90820312 C39.64230469 37.53662109 40.24945312 38.16503906 40.875 38.8125 C45.87473499 43.97270819 45.87473499 43.97270819 51.25390625 48.7265625 C53.50017547 50.58620501 55.26080358 52.29856077 57.0625 54.5625 C59.4626265 57.46395841 62.03991628 59.6630918 65 62 C66.33827304 63.66270287 67.67189785 65.32916181 69 67 C70.11375 67.8353125 70.11375 67.8353125 71.25 68.6875 C71.8275 69.120625 72.405 69.55375 73 70 C73 70.66 73 71.32 73 72 C73.66 72 74.32 72 75 72 C76.16412718 73.12988815 77.32117221 74.26798602 78.44140625 75.44140625 C80.23399517 77.23399517 82.13205411 78.85714382 84.0625 80.5 C87.0750803 83.11394019 89.72997931 85.68955315 92 89 C92 89.66 92 90.32 92 91 C92.763125 91.268125 93.52625 91.53625 94.3125 91.8125 C96.88988618 92.95134505 98.26954864 93.81416671 100 96 C100 96.66 100 97.32 100 98 C100.66 98 101.32 98 102 98 C102.0825 98.61875 102.165 99.2375 102.25 99.875 C102.79923543 102.15042479 102.79923543 102.15042479 104.875 103.125 C105.57625 103.41375 106.2775 103.7025 107 104 C107.99 104.66 108.98 105.32 110 106 C110 106.66 110 107.32 110 108 C110.86625 108.37125 110.86625 108.37125 111.75 108.75 C114.32939979 110.18299988 116.06121592 111.78424676 118 114 C118 114.66 118 115.32 118 116 C118.86625 116.37125 118.86625 116.37125 119.75 116.75 C122.34375315 118.19097397 123.96552222 119.84222053 126 122 C129.39873429 125.45683232 132.89492775 128.75948562 136.5 132 C141.75818484 136.72645828 146.58390037 141.47987546 151 147 C154.55624884 150.75381822 158.38853667 154.10945496 162.328125 157.44921875 C164 159 164 159 165 161 C165.99 161.33 166.98 161.66 168 162 C168.639375 162.969375 169.27875 163.93875 169.9375 164.9375 C172.01834776 168.02724365 172.84785398 168.47827434 176 170 C176.75 172.125 176.75 172.125 177 174 C177.5775 174.061875 178.155 174.12375 178.75 174.1875 C181.92448483 175.33384174 183.12848575 177.25956842 185 180 C185 180.66 185 181.32 185 182 C185.9590625 182.1546875 185.9590625 182.1546875 186.9375 182.3125 C187.618125 182.539375 188.29875 182.76625 189 183 C189.33 183.99 189.66 184.98 190 186 C190.66 186 191.32 186 192 186 C192 186.66 192 187.32 192 188 C192.86625 188.3403125 192.86625 188.3403125 193.75 188.6875 C196.58434736 190.3408693 197.96762189 192.42963944 200 195 C201.98260426 196.68732277 203.9832342 198.35366057 206 200 C208.68720976 202.55612636 211.09748464 205.1199811 213.4375 208 C216.11532298 211.13501227 218.80177573 213.41420165 222 216 C224.375 218.1875 224.375 218.1875 226 220 C226 220.66 226 221.32 226 222 C226.5775 222.0825 227.155 222.165 227.75 222.25 C230.67794601 223.225982 232.05244537 224.63511223 234 227 C234 227.99 234 228.98 234 230 C234.556875 230.061875 235.11375 230.12375 235.6875 230.1875 C239.94590435 231.68369612 242.44460883 235.30179396 245.1875 238.75 C246.80309077 241.07487388 246.80309077 241.07487388 249 242 C249 242.66 249 243.32 249 244 C249.86625 244.3403125 249.86625 244.3403125 250.75 244.6875 C253.55730887 246.32509684 254.99107964 248.47264858 257 251 C257.99 251.33 258.98 251.66 260 252 C260 252.66 260 253.32 260 254 C260.66 254 261.32 254 262 254 C262 254.66 262 255.32 262 256 C262.928125 256.37125 262.928125 256.37125 263.875 256.75 C266 258 266 258 266.9375 259.9375 C268.38096286 262.73951615 270.29562412 263.42768844 273 265 C275.8125 267.5625 275.8125 267.5625 278 270 C278 270.66 278 271.32 278 272 C278.99 272.33 279.98 272.66 281 273 C282.6875 274.4375 282.6875 274.4375 284 276 C284 276.66 284 277.32 284 278 C284.66 278 285.32 278 286 278 C286 278.66 286 279.32 286 280 C287.32 280.66 288.64 281.32 290 282 C290 282.66 290 283.32 290 284 C290.66 284 291.32 284 292 284 C292 284.66 292 285.32 292 286 C292.66 286 293.32 286 294 286 C296.125 287.875 296.125 287.875 298 290 C298 290.66 298 291.32 298 292 C298.66 292 299.32 292 300 292 C300 292.66 300 293.32 300 294 C300.66 294 301.32 294 302 294 C303.35386936 295.65002828 304.68678142 297.3174387 306 299 C306.66 299.33 307.32 299.66 308 300 C308 300.66 308 301.32 308 302 C308.680625 302.165 309.36125 302.33 310.0625 302.5 C313.7397837 304.37776189 315.62721637 306.83699585 318.23828125 309.98046875 C319.78329738 311.7515848 321.28727935 313.17466519 323.125 314.625 C325.34418469 316.45823952 326.82669045 317.9187374 328.5625 320.125 C330.91737471 322.90254453 332.90631597 324.19535098 336 326 C336.33 326.99 336.66 327.98 337 329 C338.65948148 330.01187895 340.32580562 331.0126546 342 332 C342 332.66 342 333.32 342 334 C342.8971875 334.3403125 342.8971875 334.3403125 343.8125 334.6875 C346 336 346 336 347.1875 338.1875 C349.0418271 341.06490412 350.5966921 342.35403927 353.3125 344.375 C356.94904507 347.08620054 359.81676817 349.86011122 362.66796875 353.37109375 C365.30971905 356.60162124 368.24663993 359.39731195 371.5 362 C378.54545455 367.63636364 378.54545455 367.63636364 380 372 C381.32338632 372.68620031 382.65949948 373.34786461 384 374 C386.14167916 375.56044105 388.03044262 377.20949329 390 379 C390 379.66 390 380.32 390 381 C390.99 381.33 391.98 381.66 393 382 C396.09359286 384.52699835 397.7966295 386.02176908 398.62099248 389.98703128 C398.61909388 391.10606709 398.61719528 392.22510291 398.61523914 393.3780489 C398.62519439 394.67337711 398.63514963 395.96870532 398.64540654 397.3032859 C398.63114203 398.73884163 398.61641406 400.17439282 398.60127258 401.60993958 C398.60345287 403.13631073 398.60783061 404.66268006 398.61421841 406.18903941 C398.62540993 410.38516274 398.60538378 414.58064916 398.58032811 418.77669132 C398.55875816 423.30084464 398.56604108 427.82496135 398.56983948 432.34915161 C398.57246266 440.18816975 398.5567604 448.02697998 398.52865028 455.86594582 C398.48803421 467.19977191 398.474995 478.53349735 398.46871033 489.86738833 C398.45776417 508.25531785 398.42448125 526.64313653 398.37719727 545.03100586 C398.33130999 562.89428146 398.295914 580.75752698 398.2746582 598.62084961 C398.27334459 599.72173736 398.27203097 600.82262511 398.27067754 601.9568731 C398.26415241 607.47964203 398.25783386 613.00241117 398.25161803 618.52518046 C398.19977502 664.35019708 398.11170098 710.17509282 398 756 C354.6267374 756.11436873 311.25349073 756.20250988 267.88010715 756.25532665 C262.76300738 756.26158041 257.64590792 756.268052 252.52880859 756.2746582 C251.5100582 756.27596976 250.4913078 756.27728131 249.44168618 756.2786326 C232.93206703 756.30040713 216.42253467 756.33983991 199.91296706 756.38576398 C182.98084735 756.43247169 166.04877318 756.46028335 149.11659169 756.47044247 C138.66299439 756.47731345 128.20964236 756.49903808 117.75612053 756.53958233 C110.59408849 756.56595055 103.4321838 756.57401447 96.2701067 756.56750689 C92.13384852 756.56429472 87.99801979 756.56932255 83.86183739 756.59602737 C80.07790087 756.62028036 76.29468439 756.6216403 72.5107154 756.60449447 C70.48755251 756.60136667 68.46439863 756.62300323 66.44135737 756.64540654 C64.64765425 756.63047368 64.64765425 756.63047368 62.81771469 756.61523914 C61.78335651 756.61713775 60.74899833 756.61903635 59.68329597 756.62099248 C56.05404153 755.78107778 55.13274713 753.95146463 53 751 C52.01 750.67 51.02 750.34 50 750 C50 749.34 50 748.68 50 748 C49.4225 747.773125 48.845 747.54625 48.25 747.3125 C45.42591529 745.66511725 44.0023037 743.56545162 42 741 C41.2575 740.443125 40.515 739.88625 39.75 739.3125 C38.88375 738.6628125 38.88375 738.6628125 38 738 C38 737.34 38 736.68 38 736 C37.01 735.67 36.02 735.34 35 735 C32.3125 732.5625 32.3125 732.5625 30 730 C30 729.34 30 728.68 30 728 C29.34 728 28.68 728 28 728 C25.875 726.125 25.875 726.125 24 724 C24 723.34 24 722.68 24 722 C23.34 722 22.68 722 22 722 C21.4225 721.2575 20.845 720.515 20.25 719.75 C17.77775162 716.72836309 15.25484443 715.12561269 12 713 C10.31288577 711.3540349 8.6454378 709.68762851 7 708 C6.0925 707.29875 5.185 706.5975 4.25 705.875 C2 704 2 704 1 701 C-0.82967524 699.43990623 -0.82967524 699.43990623 -3 698 C-6.88888889 695.33333333 -6.88888889 695.33333333 -8 692 C-8.66 692 -9.32 692 -10 692 C-11.33203125 690.64453125 -11.33203125 690.64453125 -12.8125 688.8125 C-16.09815509 684.85695407 -19.47343392 681.22125286 -23.5 678 C-26.20138441 675.83889247 -28.55590747 673.44409253 -31 671 C-31.66 670.67 -32.32 670.34 -33 670 C-33 669.34 -33 668.68 -33 668 C-34.32 667.34 -35.64 666.68 -37 666 C-37 665.34 -37 664.68 -37 664 C-37.66 664 -38.32 664 -39 664 C-40.15780091 662.60382832 -41.31121202 661.203768 -42.44140625 659.78515625 C-44.77018249 657.11786116 -47.44391183 654.90471728 -50.12890625 652.60546875 C-52.2011768 650.82738274 -54.1844517 649.04249184 -56 647 C-56 646.34 -56 645.68 -56 645 C-56.5775 644.938125 -57.155 644.87625 -57.75 644.8125 C-60.88257571 643.6812921 -62.03460851 641.62052199 -64 639 C-64.66 638.67 -65.32 638.34 -66 638 C-66 637.34 -66 636.68 -66 636 C-66.5775 635.7525 -67.155 635.505 -67.75 635.25 C-70.32939979 633.81700012 -72.06121592 632.21575324 -74 630 C-74 629.34 -74 628.68 -74 628 C-75.32 627.34 -76.64 626.68 -78 626 C-78 625.34 -78 624.68 -78 624 C-79.32 623.34 -80.64 622.68 -82 622 C-82 621.34 -82 620.68 -82 620 C-83.32 619.67 -84.64 619.34 -86 619 C-86 618.01 -86 617.02 -86 616 C-86.7425 615.7525 -87.485 615.505 -88.25 615.25 C-91.23023087 613.89534961 -92.89919252 612.4898459 -95 610 C-95 609.34 -95 608.68 -95 608 C-95.99 607.67 -96.98 607.34 -98 607 C-99.87658163 605.02105938 -101.55960294 602.9268034 -103.28125 600.8125 C-104.96771124 598.74921094 -104.96771124 598.74921094 -108 598 C-108.9590625 596.5459375 -108.9590625 596.5459375 -109.9375 595.0625 C-111.90250982 592.14475815 -112.7832197 591.14885011 -116 590 C-116 589.34 -116 588.68 -116 588 C-116.99 587.67 -117.98 587.34 -119 587 C-119.33 586.01 -119.66 585.02 -120 584 C-122.00016466 582.79117904 -122.00016466 582.79117904 -124 582 C-124 581.34 -124 580.68 -124 580 C-124.5775 579.773125 -125.155 579.54625 -125.75 579.3125 C-128.56427613 577.67083893 -130.02737733 575.56440947 -132 573 C-132.66 572.67 -133.32 572.34 -134 572 C-134 571.34 -134 570.68 -134 570 C-134.66 570 -135.32 570 -136 570 C-136 569.34 -136 568.68 -136 568 C-136.804375 567.7525 -137.60875 567.505 -138.4375 567.25 C-141 566 -141 566 -141.8125 563.875 C-141.874375 563.25625 -141.93625 562.6375 -142 562 C-142.66 562 -143.32 562 -144 562 C-144 561.34 -144 560.68 -144 560 C-144.53625 559.773125 -145.0725 559.54625 -145.625 559.3125 C-150.83109742 556.43544616 -154.83019956 552.16980044 -159 548 C-159.928125 547.278125 -160.85625 546.55625 -161.8125 545.8125 C-162.534375 545.214375 -163.25625 544.61625 -164 544 C-164 543.34 -164 542.68 -164 542 C-164.66 542 -165.32 542 -166 542 C-166 541.34 -166 540.68 -166 540 C-167.32 539.34 -168.64 538.68 -170 538 C-170 537.34 -170 536.68 -170 536 C-170.66 536 -171.32 536 -172 536 C-174.125 534.125 -174.125 534.125 -176 532 C-176 531.34 -176 530.68 -176 530 C-176.66 530 -177.32 530 -178 530 C-178 529.34 -178 528.68 -178 528 C-178.99 527.67 -179.98 527.34 -181 527 C-182.87658163 525.02105938 -184.55960294 522.9268034 -186.28125 520.8125 C-187.96771124 518.74921094 -187.96771124 518.74921094 -191 518 C-191.6875 515.9375 -191.6875 515.9375 -192 514 C-192.8353125 513.9071875 -192.8353125 513.9071875 -193.6875 513.8125 C-197.00086472 512.64834483 -198.70475296 510.60541556 -201 508 C-201.33 507.01 -201.66 506.02 -202 505 C-202.86625 504.566875 -202.86625 504.566875 -203.75 504.125 C-206.77996233 502.61001884 -208.63367027 500.42136065 -211 498 C-212.13829088 497.03271996 -213.2845635 496.07477588 -214.4375 495.125 C-217.44565789 492.58666286 -219.96948087 489.86309609 -222.4453125 486.80859375 C-226.36630959 482.24723281 -230.80788725 478.42662303 -235.4375 474.625 C-239.54686563 471.206539 -243.27046993 467.84156722 -246.58984375 463.62890625 C-248.92751945 460.92859942 -251.70269876 458.7376791 -254.4609375 456.48046875 C-254.96882812 455.99191406 -255.47671875 455.50335937 -256 455 C-256 454.34 -256 453.68 -256 453 C-257.0828125 452.6596875 -257.0828125 452.6596875 -258.1875 452.3125 C-261.56432417 450.73664872 -263.55767039 448.79123384 -266 446 C-266 445.34 -266 444.68 -266 444 C-267.32 443.34 -268.64 442.68 -270 442 C-270 441.34 -270 440.68 -270 440 C-271.32 439.34 -272.64 438.68 -274 438 C-274 437.34 -274 436.68 -274 436 C-274.55816406 435.75765625 -275.11632812 435.5153125 -275.69140625 435.265625 C-281.55639982 432.05029858 -286.78754722 426.71274556 -290.9375 421.5 C-292.82296043 418.76426486 -292.82296043 418.76426486 -296 418 C-297.03013277 416.35178756 -298.03114628 414.68496298 -299 413 C-299.66 412.67 -300.32 412.34 -301 412 C-301 411.34 -301 410.68 -301 410 C-301.99 410 -302.98 410 -304 410 C-304 409.01 -304 408.02 -304 407 C-305.32 406.67 -306.64 406.34 -308 406 C-308 405.34 -308 404.68 -308 404 C-308.86625 403.6596875 -308.86625 403.6596875 -309.75 403.3125 C-312 402 -312 402 -313.6875 399.8125 C-316.43908272 396.46598047 -319.55414507 394.24067952 -323.07421875 391.74609375 C-325.18956152 389.82812576 -325.6403222 388.78597892 -326 386 C-326.556875 385.938125 -327.11375 385.87625 -327.6875 385.8125 C-331.82048779 384.36036916 -334.29304559 380.80907004 -337.109375 377.5859375 C-341.17616865 372.95961855 -344.82584078 369.37445167 -350 366 C-352.45689313 363.4332458 -354.74693464 360.74634002 -357 358 C-354 357 -354 357 -351.7578125 357.85546875 C-350.88898438 358.29503906 -350.02015625 358.73460937 -349.125 359.1875 C-342.89642224 362.14218669 -336.63416399 364.16462151 -330 366 C-329.0310656 366.27211555 -328.0621312 366.54423111 -327.06383514 366.82459259 C-316.010911 369.56034949 -305.15395411 369.43781384 -293.83007812 369.41992188 C-291.61742732 369.42727429 -289.40478033 369.4358639 -287.19213867 369.44558716 C-281.21644017 369.46769417 -275.24088003 369.47073908 -269.26514626 369.46883965 C-264.25608347 369.46871939 -259.2470494 369.47730655 -254.23799467 369.48561716 C-241.73046601 369.50590932 -229.22300421 369.50701597 -216.71546978 369.49981004 C-205.90615922 369.49424491 -195.09708643 369.51502597 -184.28783137 369.54817051 C-173.13856546 369.58208695 -161.98939637 369.59658126 -150.84007597 369.59245348 C-144.60089661 369.59039856 -138.36195389 369.59566856 -132.12281799 369.62034607 C-126.24564692 369.64282585 -120.36896531 369.64056097 -114.49179077 369.62041855 C-112.35308949 369.61704515 -110.21435387 369.62193583 -108.07569885 369.63640213 C-90.25250084 369.74849786 -73.23108977 367.78186969 -57 360 C-55.82695313 359.45859375 -54.65390625 358.9171875 -53.4453125 358.359375 C-41.47446221 352.55703345 -31.66355041 345.11655699 -22 336 C-21.36191406 335.41476562 -20.72382812 334.82953125 -20.06640625 334.2265625 C-15.26540712 329.67149428 -11.6026821 324.53358596 -8 319 C-7.24396484 317.84371094 -7.24396484 317.84371094 -6.47265625 316.6640625 C0.94900715 304.81302438 6.05877661 292.66065841 9 279 C9.16811849 278.32664769 9.33623697 277.65329538 9.50944996 276.95953846 C11.69485068 267.0715827 11.27248254 257.0291148 11.24291992 246.96166992 C11.2439942 244.83500612 11.24593505 242.70834261 11.24867249 240.5816803 C11.25350155 234.82947983 11.24588846 229.07735749 11.23571944 223.32516646 C11.22690194 217.2885814 11.22869714 211.25199852 11.2290802 205.21540833 C11.2281449 195.0767792 11.21948051 184.93818008 11.20581055 174.79956055 C11.19009924 163.10428333 11.18481212 151.40903898 11.1855461 139.71375197 C11.18622359 127.22966241 11.17926978 114.7455854 11.1700995 102.26149964 C11.16797583 98.67990397 11.16725935 95.09831034 11.16686058 91.5167141 C11.16584996 85.87039568 11.15969508 80.22410445 11.14969444 74.57779503 C11.14679377 72.51475694 11.14553909 70.45171573 11.14612198 68.38867569 C11.38733479 47.17212772 11.38733479 47.17212772 7.75 26.375 C7.53255127 25.57304199 7.31510254 24.77108398 7.09106445 23.94482422 C5.48903655 18.22945037 3.46250515 12.81624164 0.91796875 7.4453125 C-0.07654385 4.79610021 -0.17598618 2.80572245 0 0 Z " fill="#5B577A" transform="translate(802,444)"/>
<path d="M0 0 C2.174421 -0.0076308 4.34883931 -0.01605987 6.52325439 -0.02522278 C12.40812816 -0.04708952 18.29294999 -0.05595667 24.17785978 -0.06104922 C27.86414032 -0.06470344 31.55040748 -0.07094914 35.23668289 -0.07805061 C48.12491701 -0.10252232 61.01311104 -0.11559114 73.90136719 -0.11914062 C85.86813613 -0.12276943 97.83462038 -0.15262385 109.80132329 -0.19454521 C120.11092632 -0.22938034 130.42044459 -0.24469138 140.730106 -0.24538666 C146.87150279 -0.24617526 153.01263725 -0.25472027 159.15397263 -0.28338432 C164.94080089 -0.30979085 170.72715356 -0.31164546 176.5140152 -0.29572868 C178.62088952 -0.29393176 180.72779263 -0.30044297 182.83460617 -0.31654739 C217.47027601 -0.5648513 247.66494214 11.1804551 272.52197266 35.30639648 C273.37146484 36.1275293 274.22095703 36.94866211 275.09619141 37.79467773 C300.29036663 63.88140023 304.65348972 95.96499052 304.69897461 130.60595703 C304.70525283 132.72495125 304.71190079 134.8439444 304.71888733 136.9629364 C304.73976061 143.87298846 304.75027081 150.78304033 304.76025391 157.69311523 C304.76430709 160.08558475 304.76842417 162.47805416 304.77260399 164.87052345 C304.79161527 176.11146667 304.80585729 187.35240348 304.81421596 198.59335965 C304.82398706 211.51513227 304.85032066 224.43673354 304.89071685 237.35844582 C304.92097501 247.38527045 304.93569381 257.41204619 304.93899697 267.43891555 C304.94133535 273.41026413 304.9501379 279.38142879 304.97545815 285.35272789 C304.99891602 290.9745551 305.00290157 296.59607952 304.99269676 302.21794319 C304.99220566 304.26599517 304.99839837 306.314063 305.01225281 308.36206818 C305.22534652 341.76481519 294.42750127 372.50894969 270.77197266 396.55639648 C256.05595083 411.03258093 238.55699067 421.26900958 218.52197266 426.30639648 C217.62869514 426.55371269 216.73541763 426.8010289 215.81507111 427.05583954 C204.67023365 429.83757509 193.77502832 429.74436691 182.35205078 429.72631836 C180.13939997 429.73367077 177.92675299 429.74226038 175.71411133 429.75198364 C169.73841283 429.77409066 163.76285268 429.77713556 157.78711891 429.77523613 C152.77805613 429.77511587 147.76902206 429.78370304 142.75996733 429.79201365 C130.25243866 429.8123058 117.74497687 429.81341246 105.23744243 429.80620652 C94.42813188 429.80064139 83.61905908 429.82142245 72.80980402 429.85456699 C61.66053812 429.88848344 50.51136903 429.90297774 39.36204863 429.89884996 C33.12286927 429.89679504 26.88392655 429.90206505 20.64479065 429.92674255 C14.76761958 429.94922233 8.89093797 429.94695746 3.01376343 429.92681503 C0.87506215 429.92344163 -1.26367347 429.92833232 -3.40232849 429.94279861 C-35.48133484 430.14455363 -64.50677228 420.71820909 -87.70458984 398.06030273 C-88.61982422 397.15151367 -89.53505859 396.24272461 -90.47802734 395.30639648 C-91.18701172 394.63479492 -91.89599609 393.96319336 -92.62646484 393.27124023 C-97.9503616 388.16820382 -103.23998758 382.46812372 -105.47802734 375.30639648 C-106.13802734 375.30639648 -106.79802734 375.30639648 -107.47802734 375.30639648 C-119.80397512 350.44900132 -124.95911232 328.56993704 -124.86621094 300.83813477 C-124.87028824 298.76105475 -124.87563654 296.68397691 -124.88214111 294.60690308 C-124.89568458 289.02409633 -124.89056982 283.44145804 -124.88100386 277.85864878 C-124.8733373 271.97752886 -124.88047227 266.09642208 -124.88516235 260.21530151 C-124.89060058 250.34215747 -124.88348018 240.46908102 -124.86914062 230.59594727 C-124.85282698 219.23346472 -124.8581012 207.87114382 -124.87461984 196.5086652 C-124.88830092 186.69995319 -124.89012194 176.8912894 -124.88230383 167.08257091 C-124.87766234 161.24765879 -124.87690394 155.41282225 -124.8869133 149.57791519 C-124.89567744 144.08653195 -124.88939147 138.5953539 -124.87223053 133.10399246 C-124.86831513 131.10677936 -124.86931292 129.10954852 -124.87601852 127.11234283 C-124.97135805 95.79146867 -119.03548013 65.36048077 -97.47802734 41.30639648 C-96.51669375 40.10044875 -95.55793882 38.89243583 -94.60302734 37.68139648 C-93.90177734 36.89764648 -93.20052734 36.11389648 -92.47802734 35.30639648 C-91.81802734 35.30639648 -91.15802734 35.30639648 -90.47802734 35.30639648 C-90.25115234 34.7353418 -90.02427734 34.16428711 -89.79052734 33.57592773 C-87.0027044 28.75531722 -81.82579459 25.66136648 -77.47802734 22.30639648 C-76.70201172 21.69280273 -75.92599609 21.07920898 -75.12646484 20.44702148 C-62.50375761 10.99083531 -47.71557752 5.77333904 -32.47802734 2.30639648 C-31.79089346 2.13309783 -31.10375957 1.95979918 -30.39580345 1.78124905 C-20.39418867 -0.42510321 -10.18389641 0.00226813 0 0 Z " fill="#FBFBFB" transform="translate(509.47802734375,384.693603515625)"/>
<path d="M0 0 C9.16808644 5.89803607 16.14188325 14.19532065 19.54009151 24.66379929 C20.1732834 27.88022902 20.12256334 30.96005219 20.12025452 34.23858643 C20.12110894 34.96887645 20.12196337 35.69916646 20.12284368 36.45158648 C20.12449102 38.89906437 20.11898931 41.34647374 20.11352539 43.79394531 C20.11324333 45.54820758 20.11340162 47.30246997 20.1139679 49.05673218 C20.11425514 53.8208165 20.10837013 58.58487572 20.10139394 63.3489542 C20.09514833 68.32709692 20.09455564 73.3052402 20.09336853 78.28338623 C20.09025879 87.71098907 20.08205019 97.13858034 20.07201904 106.56617808 C20.06084685 117.29883412 20.05534466 128.0314907 20.05032361 138.7641511 C20.03986729 160.84277386 20.02227473 182.9213862 20 205 C20.93483687 204.99723462 21.86967375 204.99446924 22.83283901 204.99162006 C45.59333851 204.92498233 68.35382533 204.87570416 91.11440182 204.84456348 C102.12130643 204.82910331 113.12814655 204.80802997 124.13500977 204.77368164 C133.73006454 204.74375335 143.3250726 204.72441882 152.92017275 204.71773452 C157.99936588 204.71382809 163.07842537 204.70466502 168.15757561 204.68280983 C172.94195557 204.66239054 177.72614731 204.65617721 182.51056671 204.66067696 C184.26287167 204.65985419 186.01518317 204.65392105 187.76745033 204.64238358 C200.11882706 204.56507312 209.67596333 205.5954655 220 213 C220.6084375 213.43054688 221.216875 213.86109375 221.84375 214.3046875 C228.54161349 219.50434468 232.77473955 226.87473708 235 235 C236.10964314 247.16284171 234.37443835 256.81155068 227.00390625 266.61328125 C219.53123442 275.51348103 210.62209726 281.17126057 199 283 C196.06213021 283.09898902 193.14787283 283.14782769 190.21008301 283.14717102 C189.32476882 283.15084771 188.43945464 283.1545244 187.52731276 283.1583125 C184.56052031 283.16932605 181.59376293 283.17318926 178.62695312 283.17700195 C176.49955128 283.18326846 174.37215053 283.18991543 172.24475098 283.19691467 C165.25692505 283.21793864 158.26909894 283.22831686 151.28125 283.23828125 C148.87287891 283.2423297 146.46450794 283.24644665 144.05613708 283.25063133 C132.73828864 283.26968088 121.42044671 283.28391132 110.10258532 283.2922433 C97.05331185 283.30200929 84.0042083 283.32831328 70.95499468 283.36874419 C60.85965601 283.39894558 50.76436593 283.41371608 40.66898298 283.41702431 C34.64403713 283.41937056 28.61927285 283.42827564 22.59437561 283.45348549 C16.92097813 283.4768409 11.24788081 283.48096934 5.57444763 283.47072411 C3.49969481 283.47023042 1.42492685 283.47650108 -0.64978027 283.49028015 C-15.9381145 283.58608102 -29.32784289 283.16274608 -41 272 C-41.71027344 271.3296875 -42.42054688 270.659375 -43.15234375 269.96875 C-51.83835037 261.0401175 -55.14985781 250.43675588 -55.14717102 238.24095154 C-55.15268605 236.89989455 -55.15268605 236.89989455 -55.1583125 235.53174549 C-55.16934426 232.52954003 -55.17319235 229.52736918 -55.17700195 226.52514648 C-55.18326706 224.37494293 -55.1899139 222.22474047 -55.19691467 220.07453918 C-55.21795436 213.00673171 -55.22831795 205.93892402 -55.23828125 198.87109375 C-55.24232904 196.43698681 -55.24644597 194.00287998 -55.25063133 191.56877327 C-55.26968391 180.13132385 -55.28391401 168.69388088 -55.2922433 157.25641865 C-55.30201208 144.0605247 -55.32832211 130.86479865 -55.36874419 117.66896385 C-55.39892451 107.46582188 -55.41371406 97.26272798 -55.41702431 87.05954224 C-55.41937288 80.96757659 -55.42830823 74.87579031 -55.45348549 68.7838726 C-55.47680409 63.04893731 -55.48098403 57.31429899 -55.47072411 51.57932854 C-55.47022954 49.47954825 -55.47652652 47.37975316 -55.49028015 45.28001785 C-55.5879923 29.47229891 -54.42311731 17.9043109 -43 6 C-31.31418797 -4.91145099 -14.22759528 -8.28720756 0 0 Z " fill="#5C587B" transform="translate(509,461)"/>
<path d="M0 0 C8.82733285 5.17008513 13.71026623 11.44377536 16.34765625 21.375 C17.77915111 29.83383327 15.39311102 36.94413834 11.34765625 44.375 C8.83925078 47.77681016 6.27411624 50.29720367 2.9765625 52.93359375 C1.11933327 54.5770412 -0.42604501 56.35689284 -2.02734375 58.25 C-4.96077901 61.70034015 -8.11764297 64.57876544 -11.57106686 67.4955864 C-13.55124283 69.28370487 -15.25221021 71.12382598 -16.97621155 73.15655518 C-20.33450025 77.04586429 -23.84627222 80.72937865 -27.47045898 84.37011719 C-28.43295059 85.34246559 -28.43295059 85.34246559 -29.41488647 86.3344574 C-31.51071686 88.44978402 -33.6103581 90.56126475 -35.7109375 92.671875 C-36.43371447 93.39872749 -37.15649143 94.12557999 -37.90117073 94.87445831 C-41.71997915 98.71401617 -45.54197605 102.55036818 -49.36645508 106.38427734 C-53.30328752 110.33221294 -57.22829333 114.29169601 -61.15083218 118.25382614 C-64.18372328 121.31288941 -67.22549297 124.36300714 -70.269701 127.41080475 C-71.72066638 128.8666263 -73.16826541 130.32581141 -74.6123333 131.78847504 C-76.63381439 133.83438235 -78.66764647 135.8672087 -80.70483398 137.89746094 C-81.29157394 138.49701096 -81.8783139 139.09656097 -82.48283386 139.71427917 C-87.02404029 144.19963781 -91.96203579 147.6937949 -98.33984375 148.87109375 C-106.53785546 148.66337386 -111.94900235 147.35036324 -117.83984375 141.4375 C-118.83371094 140.37208984 -118.83371094 140.37208984 -119.84765625 139.28515625 C-121.67914197 137.25066862 -121.67914197 137.25066862 -124.21484375 135.375 C-127.1765224 132.9449047 -129.48398484 130.1585932 -131.96484375 127.25 C-133.68100175 125.24102082 -133.68100175 125.24102082 -136.15234375 123.375 C-138.37932182 121.59341755 -139.9551482 119.91763547 -141.77734375 117.75 C-145.55689665 113.30444659 -149.81797502 109.51464185 -154.19921875 105.671875 C-156.65234375 103.375 -156.65234375 103.375 -158.29296875 101.140625 C-159.62154255 99.07482976 -159.62154255 99.07482976 -162.65234375 98.375 C-169.20080571 89.52707811 -171.6953948 81.32026293 -170.65234375 70.375 C-168.90861295 61.6680489 -164.69309394 55.71931747 -157.65234375 50.375 C-150.75548016 46.19850323 -143.58469008 45.33381246 -135.65234375 46.375 C-125.27468911 49.13692698 -118.28255578 57.62025906 -111.046875 65.04296875 C-108.66881263 67.44564958 -108.66881263 67.44564958 -105.8515625 69.55078125 C-105.12582031 70.15277344 -104.40007812 70.75476563 -103.65234375 71.375 C-103.65234375 72.035 -103.65234375 72.695 -103.65234375 73.375 C-101.20754296 73.18671228 -101.20754296 73.18671228 -98.65234375 72.375 C-97.94967758 71.06028236 -97.28650297 69.72409759 -96.65234375 68.375 C-95.38502407 66.8476181 -95.38502407 66.8476181 -93.92881775 65.37731934 C-93.37532654 64.813853 -92.82183533 64.25038666 -92.25157166 63.66984558 C-91.64640213 63.06401138 -91.0412326 62.45817719 -90.41772461 61.83398438 C-89.77839996 61.18633621 -89.13907532 60.53868805 -88.4803772 59.87141418 C-86.36476779 57.73170816 -84.24157502 55.59973892 -82.1171875 53.46875 C-80.63937425 51.98196827 -79.16163793 50.49511006 -77.68397522 49.00817871 C-74.5831641 45.8908746 -71.47798211 42.77799523 -68.37036133 39.66748047 C-64.3997115 35.69145503 -60.4454522 31.69954935 -56.49504757 27.70342255 C-53.44679136 24.62533876 -50.38725885 21.55865312 -47.32455635 18.49494934 C-45.86250615 17.02870614 -44.40455758 15.55836062 -42.95091057 14.08378601 C-40.9099083 12.01576151 -38.85349533 9.96431681 -36.79272461 7.91601562 C-35.90622475 7.00726433 -35.90622475 7.00726433 -35.0018158 6.08015442 C-25.37249492 -3.38515334 -12.41043062 -5.81171385 0 0 Z " fill="#6EA6B4" transform="translate(735.65234375,463.625)"/>
<path d="M0 0 C0.495 0.99 0.495 0.99 1 2 C1.66 2 2.32 2 3 2 C3 2.66 3 3.32 3 4 C2.01 4.33 1.02 4.66 0 5 C-1.71452342 6.69153744 -1.71452342 6.69153744 -3.375 8.75 C-7.12088979 13.15416332 -10.98904647 17.17606709 -15.4375 20.875 C-18.57631376 23.51352248 -21.16886194 26.3931355 -23.73828125 29.58203125 C-25 31 -25 31 -27 32 C-27.33 32.99 -27.66 33.98 -28 35 C-29.98 35 -31.96 35 -34 35 C-29.97251947 30.16701194 -25.75620587 25.61889996 -21.2890625 21.19140625 C-20.36956314 20.27402931 -20.36956314 20.27402931 -19.43148804 19.33811951 C-17.49835436 17.41052441 -15.56175013 15.48646072 -13.625 13.5625 C-12.30315301 12.24567596 -10.98153628 10.92862074 -9.66015625 9.61132812 C-6.44275701 6.40487627 -3.22224319 3.20158371 0 0 Z " fill="#7EA8AE" transform="translate(689,482)"/>
<path d="M0 0 C0.66 0.66 1.32 1.32 2 2 C-1.11368609 7.77115443 -4.01621652 12.46316626 -9.21484375 16.5078125 C-11.21849833 18.18263974 -12.8171706 20.00469892 -14.5 22 C-17.70465539 25.77873198 -21.16425301 28.86877796 -25 32 C-24.31911019 29.08014819 -23.41898766 26.64877696 -22 24 C-21.34 24 -20.68 24 -20 24 C-19.89365234 22.84951172 -19.89365234 22.84951172 -19.78515625 21.67578125 C-19 19 -19 19 -16.93359375 17.41796875 C-15.69802734 16.80888672 -15.69802734 16.80888672 -14.4375 16.1875 C-13.61121094 15.76855469 -12.78492188 15.34960938 -11.93359375 14.91796875 C-11.29550781 14.61503906 -10.65742187 14.31210937 -10 14 C-10 13.01 -10 12.02 -10 11 C-8.73786958 7.21360875 -7.34654649 6.95895404 -4 5 C-3.34 4.01 -2.68 3.02 -2 2 C-1.34 2 -0.68 2 0 2 C0 1.34 0 0.68 0 0 Z " fill="#7EA8AF" transform="translate(748,500)"/>
<path d="M0 0 C0.8971875 0.309375 0.8971875 0.309375 1.8125 0.625 C1.01585937 1.29982422 1.01585937 1.29982422 0.203125 1.98828125 C-7.79786558 9.27385479 -10.38101897 17.18028854 -11.109375 27.82421875 C-11.13515625 28.41847656 -11.1609375 29.01273438 -11.1875 29.625 C-11.5175 29.625 -11.8475 29.625 -12.1875 29.625 C-12.5175 27.645 -12.8475 25.665 -13.1875 23.625 C-13.5175 23.625 -13.8475 23.625 -14.1875 23.625 C-14.1875 21.645 -14.1875 19.665 -14.1875 17.625 C-13.5275 17.625 -12.8675 17.625 -12.1875 17.625 C-12.1875 16.305 -12.1875 14.985 -12.1875 13.625 C-11.5275 13.625 -10.8675 13.625 -10.1875 13.625 C-10.5175 11.975 -10.8475 10.325 -11.1875 8.625 C-10.1975 7.965 -9.2075 7.305 -8.1875 6.625 C-7.6925 5.8 -7.1975 4.975 -6.6875 4.125 C-4.92031972 1.17969954 -3.62827651 -0.62199026 0 0 Z " fill="#EAF8F9" transform="translate(576.1875,514.375)"/>
<path d="M0 0 C2.54074441 0.98747419 3.78701723 1.66409198 5.265625 3.99609375 C7.81824277 10.326991 8.97747628 16.16903202 8 23 C7.34 23.99 6.68 24.98 6 26 C4.50214236 21.84968611 3.58745872 17.93172422 3 13.5625 C2.32424253 8.87510295 1.46476516 4.49892155 0 0 Z " fill="#7BA6AD" transform="translate(744,473)"/>
<path d="M0 0 C0.66 0.66 1.32 1.32 2 2 C-3.61 7.61 -9.22 13.22 -15 19 C-15.33 17.68 -15.66 16.36 -16 15 C-15.01 14.67 -14.02 14.34 -13 14 C-13.66 12.68 -14.32 11.36 -15 10 C-14.0925 9.95875 -13.185 9.9175 -12.25 9.875 C-7.92584924 8.71080557 -7.28106833 6.72574495 -5 3 C-2.8125 1.6875 -2.8125 1.6875 -1 1 C-0.67 0.67 -0.34 0.34 0 0 Z " fill="#E9F5F7" transform="translate(704,464)"/>
<path d="M0 0 C0.99 0.33 1.98 0.66 3 1 C-3.6 7.6 -10.2 14.2 -17 21 C-17.33 20.01 -17.66 19.02 -18 18 C-17.01 16.515 -17.01 16.515 -16 15 C-15.34 15 -14.68 15 -14 15 C-13.67 14.01 -13.34 13.02 -13 12 C-11.53957977 10.73430247 -10.07403635 9.47270862 -8.55859375 8.2734375 C-6.8174997 6.90018565 -6.8174997 6.90018565 -4.75 4.6875 C-3 3 -3 3 -1 3 C-0.67 2.01 -0.34 1.02 0 0 Z " fill="#86ADB4" transform="translate(695,557)"/>
<path d="M0 0 C9.80811948 -0.5974489 16.85257318 0.44187806 24.5625 6.75 C25.366875 7.4925 26.17125 8.235 27 9 C25.3125 9.8125 25.3125 9.8125 23 10 C21.31126121 8.35570171 19.64694485 6.68615782 18 5 C13.70197121 3.22552811 9.74709647 2.6579855 5.125 2.375 C3.97257813 2.30023437 2.82015625 2.22546875 1.6328125 2.1484375 C0.32957031 2.07496094 0.32957031 2.07496094 -1 2 C-0.67 1.34 -0.34 0.68 0 0 Z " fill="#83A8AF" transform="translate(588,510)"/>
<path d="M0 0 C5.54166667 0.48188406 5.54166667 0.48188406 7.4375 2.625 C8.21654474 5.91430003 7.53275689 8.68506827 7 12 C7.34659295 14.32158065 7.34659295 14.32158065 8 16 C3.76137384 12.51827137 1.76297954 8.09201006 0 3 C0 2.01 0 1.02 0 0 Z " fill="#625D7B" transform="translate(456,712)"/>
<path d="M0 0 C1.32 0.66 2.64 1.32 4 2 C-0.62 6.62 -5.24 11.24 -10 16 C-11 13 -11 13 -10 10 C-9.34 10 -8.68 10 -8 10 C-8 9.34 -8 8.68 -8 8 C-7.34 8 -6.68 8 -6 8 C-6 7.34 -6 6.68 -6 6 C-5.01 5.67 -4.02 5.34 -3 5 C-2.67 4.01 -2.34 3.02 -2 2 C-1.34 2 -0.68 2 0 2 C0 1.34 0 0.68 0 0 Z " fill="#E8F5F7" transform="translate(683,483)"/>
<path d="M0 0 C4.50082432 1.50027477 7.34225943 3.01338914 10 7 C10.99 7.33 11.98 7.66 13 8 C13.33 8.99 13.66 9.98 14 11 C14.66 11.33 15.32 11.66 16 12 C16 12.99 16 13.98 16 15 C12.13447144 13.37482529 9.3970187 10.86698229 6.3125 8.0625 C5.33925781 7.18722656 4.36601563 6.31195312 3.36328125 5.41015625 C1 3 1 3 0 0 Z " fill="#80A9AE" transform="translate(608,594)"/>
<path d="M0 0 C1.31484375 -0.00257813 2.6296875 -0.00515625 3.984375 -0.0078125 C7.25 0.125 7.25 0.125 9.25 1.125 C9.875 3.1875 9.875 3.1875 10.25 5.125 C9.239375 4.795 8.22875 4.465 7.1875 4.125 C0.6999516 2.45911958 -6.10388026 2.96923157 -12.75 3.125 C-13.08 2.465 -13.41 1.805 -13.75 1.125 C-9.11828372 0.21879464 -4.71637727 -0.0093209 0 0 Z " fill="#E2F5F8" transform="translate(725.75,458.875)"/>
<path d="M0 0 C0.33 1.32 0.66 2.64 1 4 C0.01 4.33 -0.98 4.66 -2 5 C-2.15339844 5.62390625 -2.30679688 6.2478125 -2.46484375 6.890625 C-3.16174588 9.63753852 -4.22868522 10.22241214 -6.5625 11.75 C-7.20316406 12.17796875 -7.84382812 12.6059375 -8.50390625 13.046875 C-9.24447266 13.51867187 -9.24447266 13.51867187 -10 14 C-10.66 13.34 -11.32 12.68 -12 12 C-8.04 8.04 -4.08 4.08 0 0 Z " fill="#82AAB1" transform="translate(654,517)"/>
<path d="M0 0 C2.625 0.9375 2.625 0.9375 5 2 C1.6189962 6.13621084 -1.66590534 9.81316569 -6 13 C-6 12.01 -6 11.02 -6 10 C-5.34 10 -4.68 10 -4 10 C-3.34 8.35 -2.68 6.7 -2 5 C-1.34 5 -0.68 5 0 5 C-0.66 3.68 -1.32 2.36 -2 1 C-1.34 0.67 -0.68 0.34 0 0 Z " fill="#EAF6F8" transform="translate(667,497)"/>
<path d="M0 0 C1.35208914 0.62775567 2.68163705 1.30419733 4 2 C5.99220557 2.68960962 7.99105606 3.36079057 10 4 C9.67 4.99 9.34 5.98 9 7 C6.8125 7.8125 6.8125 7.8125 4 8 C1.43588292 5.84381063 -0.49549813 4.00900373 -2 1 C-1.34 0.67 -0.68 0.34 0 0 Z " fill="#E4F7F9" transform="translate(628,529)"/>
<path d="M0 0 C0.66 0 1.32 0 2 0 C2.33 0.99 2.66 1.98 3 3 C3.53625 3.474375 4.0725 3.94875 4.625 4.4375 C5.07875 4.953125 5.5325 5.46875 6 6 C5.6875 8.1875 5.6875 8.1875 5 10 C4.01 9.67 3.02 9.34 2 9 C2 8.34 2 7.68 2 7 C1.34 7 0.68 7 0 7 C-0.66 5.35 -1.32 3.7 -2 2 C-1.34 2 -0.68 2 0 2 C0 1.34 0 0.68 0 0 Z " fill="#EFF0F4" transform="translate(402,753)"/>
<path d="M0 0 C0.66 0 1.32 0 2 0 C2.2475 0.886875 2.495 1.77375 2.75 2.6875 C4.04147017 6.10989594 5.67895325 8.2147439 8 11 C8 11.66 8 12.32 8 13 C8.66 13.33 9.32 13.66 10 14 C9.67 14.66 9.34 15.32 9 16 C8.34 16 7.68 16 7 16 C3.3956321 11.16230728 0.32301201 6.13722814 0 0 Z " fill="#8BAEB5" transform="translate(566,546)"/>
<path d="M0 0 C0.66 0.33 1.32 0.66 2 1 C1.5359375 2.175625 1.5359375 2.175625 1.0625 3.375 C-0.26335807 7.89851578 -0.64811085 12.31431814 -1 17 C-1.33 17 -1.66 17 -2 17 C-2.33 15.02 -2.66 13.04 -3 11 C-3.33 11 -3.66 11 -4 11 C-4 9.02 -4 7.04 -4 5 C-3.34 5 -2.68 5 -2 5 C-2 3.68 -2 2.36 -2 1 C-1.34 0.67 -0.68 0.34 0 0 Z " fill="#DFF1F4" transform="translate(566,527)"/>
<path d="M0 0 C0.99 0 1.98 0 3 0 C5.0974026 3.45454545 5.0974026 3.45454545 4.6875 5.75 C4.460625 6.4925 4.23375 7.235 4 8 C3.61103053 10.66137006 3.31172895 13.3280376 3 16 C2.67 16 2.34 16 2 16 C1.34 10.72 0.68 5.44 0 0 Z " fill="#ECEFF3" transform="translate(386,710)"/>
<path d="M0 0 C0.99 0.66 1.98 1.32 3 2 C-0.63 5.63 -4.26 9.26 -8 13 C-8.33 12.01 -8.66 11.02 -9 10 C-8.34 10 -7.68 10 -7 10 C-7 9.34 -7 8.68 -7 8 C-6.34 8 -5.68 8 -5 8 C-5 7.34 -5 6.68 -5 6 C-4.34 6 -3.68 6 -3 6 C-2.814375 4.7934375 -2.814375 4.7934375 -2.625 3.5625 C-2.41875 2.716875 -2.2125 1.87125 -2 1 C-1.34 0.67 -0.68 0.34 0 0 Z " fill="#8AB0B7" transform="translate(713,538)"/>
<path d="M0 0 C2 1 2 1 3.1875 3.3125 C4.03624754 6.11989571 3.99928333 7.301935 3 10 C0.03 9.505 0.03 9.505 -3 9 C-1.125 2.25 -1.125 2.25 0 0 Z " fill="#68667D" transform="translate(524,478)"/>
<path d="M0 0 C0.66 0.66 1.32 1.32 2 2 C-0.97 4.97 -3.94 7.94 -7 11 C-7.99 10.67 -8.98 10.34 -10 10 C-8.90033225 8.70450101 -7.79508199 7.41373929 -6.6875 6.125 C-6.07261719 5.40570312 -5.45773437 4.68640625 -4.82421875 3.9453125 C-3 2 -3 2 0 0 Z " fill="#E7F9FA" transform="translate(725,530)"/>
<path d="M0 0 C0.33 0.66 0.66 1.32 1 2 C-0.92529733 6.17147755 -3.04186487 7.82302568 -7 10 C-8.75149165 11.58245275 -8.75149165 11.58245275 -10 13 C-10.66 12.67 -11.32 12.34 -12 12 C-8.04 8.04 -4.08 4.08 0 0 Z " fill="#E5F9FA" transform="translate(671,584)"/>
<path d="M0 0 C0.66 0.66 1.32 1.32 2 2 C1.360625 2.598125 0.72125 3.19625 0.0625 3.8125 C-2.20310389 5.90810337 -2.20310389 5.90810337 -3 9 C-6.5625 10.1875 -6.5625 10.1875 -10 11 C-6.79239749 7.19364503 -3.59253891 3.45436433 0 0 Z " fill="#E3F4F6" transform="translate(658,597)"/>
<path d="M0 0 C2 2 2 2 2 5 C2.99 5 3.98 5 5 5 C5 5.66 5 6.32 5 7 C5.928125 7.2165625 5.928125 7.2165625 6.875 7.4375 C9 8 9 8 11 9 C11 9.66 11 10.32 11 11 C5.78891146 9.6351911 2.83408676 7.65575714 -1 4 C-1.33 3.01 -1.66 2.02 -2 1 C-1.34 0.67 -0.68 0.34 0 0 Z " fill="#84ACB1" transform="translate(580,563)"/>
<path d="M0 0 C4.455 0.99 4.455 0.99 9 2 C9 2.66 9 3.32 9 4 C9.99 4.66 10.98 5.32 12 6 C7.02693484 5.50269348 3.36200187 4.44697666 -1 2 C-0.67 1.34 -0.34 0.68 0 0 Z " fill="#77758A" transform="translate(477,737)"/>
<path d="M0 0 C0.99 0.99 1.98 1.98 3 3 C0.75552339 5.5811481 -0.7493136 6.1873284 -4 7 C-5.73026102 8.47890069 -5.73026102 8.47890069 -7 10 C-7 7 -7 7 -5.46875 5.17578125 C-4.8190625 4.56089844 -4.169375 3.94601562 -3.5 3.3125 C-2.8503125 2.68988281 -2.200625 2.06726563 -1.53125 1.42578125 C-0.77328125 0.72001953 -0.77328125 0.72001953 0 0 Z " fill="#EBFBFB" transform="translate(693,562)"/>
<path d="M0 0 C1.65 0 3.3 0 5 0 C5 0.66 5 1.32 5 2 C6.60875 1.87625 6.60875 1.87625 8.25 1.75 C12 2 12 2 16 6 C10.72 4.68 5.44 3.36 0 2 C0 1.34 0 0.68 0 0 Z " fill="#959BA8" transform="translate(722,386)"/>
<path d="M0 0 C-1.43457328 0.9834496 -2.87277406 1.96160921 -4.3125 2.9375 C-5.11300781 3.48277344 -5.91351562 4.02804687 -6.73828125 4.58984375 C-9 6 -9 6 -12 7 C-11.67 6.01 -11.34 5.02 -11 4 C-10.34 4 -9.68 4 -9 4 C-9 3.34 -9 2.68 -9 2 C-5.59159007 -0.55630744 -4.03546861 -1.28479663 0 0 Z " fill="#6D6A7F" transform="translate(730,734)"/>
<path d="M0 0 C0.33 1.32 0.66 2.64 1 4 C-1.97 6.475 -1.97 6.475 -5 9 C-5.33 8.01 -5.66 7.02 -6 6 C-5.67 5.34 -5.34 4.68 -5 4 C-4.34 4 -3.68 4 -3 4 C-2.67 3.01 -2.34 2.02 -2 1 C-1.34 0.67 -0.68 0.34 0 0 Z " fill="#7EAAAD" transform="translate(703,548)"/>
<path d="M0 0 C0.99 0.33 1.98 0.66 3 1 C1.35 2.98 -0.3 4.96 -2 7 C-3.32 6.67 -4.64 6.34 -6 6 C-5.67 5.34 -5.34 4.68 -5 4 C-4.34 4 -3.68 4 -3 4 C-2.67 3.01 -2.34 2.02 -2 1 C-1.34 0.67 -0.68 0.34 0 0 Z " fill="#7EA9AF" transform="translate(719,532)"/>
<path d="M0 0 C7.48291572 6.15034169 7.48291572 6.15034169 10 10 C5.07685806 8.76921451 2.73481808 7.31259775 0 3 C0 2.01 0 1.02 0 0 Z " fill="#7EA7AD" transform="translate(615,520)"/>
<path d="M0 0 C1.36511719 0.29197266 1.36511719 0.29197266 2.7578125 0.58984375 C3.45648438 0.74582031 4.15515625 0.90179688 4.875 1.0625 C4.875 1.3925 4.875 1.7225 4.875 2.0625 C0.915 2.7225 -3.045 3.3825 -7.125 4.0625 C-7.125 2.7425 -7.125 1.4225 -7.125 0.0625 C-4.4030754 -1.2984623 -2.9418043 -0.64116248 0 0 Z " fill="#64607C" transform="translate(486.125,458.9375)"/>
<path d="M0 0 C-2.33214148 1.20628008 -4.49642139 2.1654738 -7 3 C-9.6875 2.0625 -9.6875 2.0625 -12 1 C-7.20974857 -1.47771626 -5.04754757 -2.31914348 0 0 Z " fill="#68647B" transform="translate(736,811)"/>
<path d="M0 0 C0.94875 0.350625 1.8975 0.70125 2.875 1.0625 C2.875 2.0525 2.875 3.0425 2.875 4.0625 C0.26917629 4.99315133 -0.76698224 5.21167407 -3.375 4.125 C-3.9525 3.774375 -4.53 3.42375 -5.125 3.0625 C-5.125 2.0725 -5.125 1.0825 -5.125 0.0625 C-3.125 -0.9375 -3.125 -0.9375 0 0 Z " fill="#F4F3F7" transform="translate(477.125,738.9375)"/>
<path d="M0 0 C0.66 0.33 1.32 0.66 2 1 C-0.97 3.97 -3.94 6.94 -7 10 C-7.33 9.34 -7.66 8.68 -8 8 C-7.0625 5.875 -7.0625 5.875 -6 4 C-5.34 4 -4.68 4 -4 4 C-3.67 3.01 -3.34 2.02 -3 1 C-2.01 0.67 -1.02 0.34 0 0 Z " fill="#84A9B5" transform="translate(662,591)"/>
<path d="M0 0 C-3.22741144 2.85856441 -5.60370982 4.76236269 -10 5 C-10.66 4.34 -11.32 3.68 -12 3 C-11.01 3 -10.02 3 -9 3 C-9 2.34 -9 1.68 -9 1 C-5.64919071 -1.10976881 -3.77897651 -1.0497157 0 0 Z " fill="#EDEBF4" transform="translate(749,802)"/>
<path d="M0 0 C1.98 1.65 3.96 3.3 6 5 C5.01 5.66 4.02 6.32 3 7 C2.01 6.67 1.02 6.34 0 6 C0 5.34 0 4.68 0 4 C-0.66 4 -1.32 4 -2 4 C-2 3.34 -2 2.68 -2 2 C-1.34 2 -0.68 2 0 2 C0 1.34 0 0.68 0 0 Z " fill="#E1F4F3" transform="translate(591,578)"/>
<path d="M0 0 C0.99 0.66 1.98 1.32 3 2 C0.36 4.64 -2.28 7.28 -5 10 C-6 7 -6 7 -4.6875 4.3125 C-4.130625 3.549375 -3.57375 2.78625 -3 2 C-2.34 2 -1.68 2 -1 2 C-0.67 1.34 -0.34 0.68 0 0 Z " fill="#8BB1B9" transform="translate(729,522)"/>
<path d="M0 0 C3 3.625 3 3.625 3 7 C1.68 7.33 0.36 7.66 -1 8 C-1.66 6.02 -2.32 4.04 -3 2 C-2.01 1.34 -1.02 0.68 0 0 Z " fill="#EDECF2" transform="translate(804,454)"/>
<path d="M0 0 C0.66 0.33 1.32 0.66 2 1 C1.375 2.9375 1.375 2.9375 0 5 C-3.125 5.75 -3.125 5.75 -6 6 C-6 5.01 -6 4.02 -6 3 C-4.03533587 1.93224776 -2.03144641 0.93446535 0 0 Z " fill="#E3F5F8" transform="translate(646,608)"/>
<path d="M0 0 C0.66 0.33 1.32 0.66 2 1 C1.67 3.64 1.34 6.28 1 9 C0.67 8.01 0.34 7.02 0 6 C-1.98 6.99 -1.98 6.99 -4 8 C-2.87548273 5.0280615 -1.77706209 2.66559313 0 0 Z " fill="#69657D" transform="translate(461,473)"/>
<path d="M0 0 C0.66 0 1.32 0 2 0 C4.04169485 2.90548882 5 4.40142046 5 8 C4.01 8.33 3.02 8.66 2 9 C0.14223235 5.86501708 -0.20140476 3.62528568 0 0 Z " fill="#595970" transform="translate(802,444)"/>
<path d="M0 0 C3.04872454 1.01624151 5.37403939 2.15473038 8 4 C8 4.99 8 5.98 8 7 C4.59679258 5.98823563 3.24274669 5.35156418 1.1875 2.375 C0.795625 1.59125 0.40375 0.8075 0 0 Z " fill="#87AEB3" transform="translate(608,594)"/>
<path d="M0 0 C0.99 0.33 1.98 0.66 3 1 C0.36 3.64 -2.28 6.28 -5 9 C-5.33 7.68 -5.66 6.36 -6 5 C-1.60546875 0.99609375 -1.60546875 0.99609375 0 0 Z " fill="#E7F7F8" transform="translate(646,522)"/>
<path d="M0 0 C0.99 0 1.98 0 3 0 C3 1.65 3 3.3 3 5 C2.34 4.67 1.68 4.34 1 4 C0.67 4.99 0.34 5.98 0 7 C-1.32 6.67 -2.64 6.34 -4 6 C-2.1875 3 -2.1875 3 0 0 Z " fill="#ECEAF2" transform="translate(740,720)"/>
<path d="M0 0 C2.475 0.495 2.475 0.495 5 1 C5 2.65 5 4.3 5 6 C3.68 5.67 2.36 5.34 1 5 C0.67 3.35 0.34 1.7 0 0 Z " fill="#F2F1F6" transform="translate(738,682)"/>
<path d="M0 0 C1.0326802 2.78823655 1.04509293 3.8677274 0.0625 6.75 C-0.288125 7.4925 -0.63875 8.235 -1 9 C-2.32 9 -3.64 9 -5 9 C-4.67 7.02 -4.34 5.04 -4 3 C-3.34 3.33 -2.68 3.66 -2 4 C-1.34 2.68 -0.68 1.36 0 0 Z " fill="#83899B" transform="translate(391,460)"/>
<path d="M0 0 C2.97 0.99 5.94 1.98 9 3 C8.34 3.66 7.68 4.32 7 5 C4.04337034 4.77256695 2.44966312 4.38764062 0.1875 2.4375 C-0.204375 1.963125 -0.59625 1.48875 -1 1 C-0.67 0.67 -0.34 0.34 0 0 Z " fill="#EEF1F7" transform="translate(738,392)"/>
<path d="M0 0 C0 1.32 0 2.64 0 4 C-1.65 4.66 -3.3 5.32 -5 6 C-5.33 4.68 -5.66 3.36 -6 2 C-2.25 0 -2.25 0 0 0 Z " fill="#76A6AA" transform="translate(735,517)"/>
<path d="M0 0 C2.6875 0.875 2.6875 0.875 5 2 C2.37801226 4.15377564 0.35595828 5.40072174 -3 6 C-3 4.68 -3 3.36 -3 2 C-2.01 1.34 -1.02 0.68 0 0 Z " fill="#EEEDF2" transform="translate(476,456)"/>
<path d="M0 0 C1.32 0.33 2.64 0.66 4 1 C1.6875 3.5 1.6875 3.5 -1 6 C-1.99 6 -2.98 6 -4 6 C-3.67 5.01 -3.34 4.02 -3 3 C-2.34 3 -1.68 3 -1 3 C-0.67 2.01 -0.34 1.02 0 0 Z " fill="#80A9AE" transform="translate(669,582)"/>
<path d="M0 0 C0.66 0.33 1.32 0.66 2 1 C1.690625 1.721875 1.38125 2.44375 1.0625 3.1875 C0.07439461 5.80307309 -0.5287754 8.25118982 -1 11 C-1.66 10.67 -2.32 10.34 -3 10 C-2.49287967 6.28111761 -1.88391785 3.26545761 0 0 Z " fill="#E7ECF2" transform="translate(395,453)"/>
<path d="M0 0 C4.875 4.625 4.875 4.625 6 8 C5.01 8.495 5.01 8.495 4 9 C4 8.01 4 7.02 4 6 C3.34 6 2.68 6 2 6 C1.67 6.66 1.34 7.32 1 8 C0 2.25 0 2.25 0 0 Z " fill="#6E6C82" transform="translate(733,678)"/>
<path d="M0 0 C3.24208567 0.35049575 4.61527704 0.56221181 6.8125 3.0625 C7.204375 3.701875 7.59625 4.34125 8 5 C7.01 5.33 6.02 5.66 5 6 C4.67 5.34 4.34 4.68 4 4 C1.98330173 2.86649466 1.98330173 2.86649466 0 2 C0 1.34 0 0.68 0 0 Z " fill="#7EA5AC" transform="translate(736,466)"/>
<path d="M0 0 C2.475 0.99 2.475 0.99 5 2 C4.67 2.99 4.34 3.98 4 5 C-0.75 4.25 -0.75 4.25 -3 2 C-2.01 2 -1.02 2 0 2 C0 1.34 0 0.68 0 0 Z " fill="#E6E6EC" transform="translate(455,801)"/>
<path d="M0 0 C0 0.99 0 1.98 0 3 C-0.66 3.66 -1.32 4.32 -2 5 C-2.64767793 7.57061311 -2.64767793 7.57061311 -3 10 C-3.99 9.34 -4.98 8.68 -6 8 C-6 7.34 -6 6.68 -6 6 C-5.34 6 -4.68 6 -4 6 C-3.71125 5.38125 -3.4225 4.7625 -3.125 4.125 C-2 2 -2 2 0 0 Z " fill="#82ACB4" transform="translate(641,530)"/>
<path d="M0 0 C0 2.62113708 -0.31292445 4.50935112 -1 7 C-2.98 7.33 -4.96 7.66 -7 8 C-6.02133662 6.85373678 -5.04205413 5.70800212 -4.0625 4.5625 C-3.51722656 3.92441406 -2.97195313 3.28632813 -2.41015625 2.62890625 C-1.63204305 1.73008851 -0.84063472 0.84063472 0 0 Z " fill="#83A8B0" transform="translate(697,474)"/>
<path d="M0 0 C5.01113235 1.4317521 6.94469549 3.98445693 10 8 C6.05205855 6.32971708 3.18203882 3.8204435 0 1 C0 0.67 0 0.34 0 0 Z " fill="#EAEDF3" transform="translate(424,784)"/>
<path d="M0 0 C0.66 0.66 1.32 1.32 2 2 C1.61121812 5.01305957 0.73543126 6.39685311 -1 9 C-1.66 9 -2.32 9 -3 9 C-2.01 6.03 -1.02 3.06 0 0 Z " fill="#6F6C80" transform="translate(805,742)"/>
<path d="M0 0 C0.99 1.32 1.98 2.64 3 4 C1.35 5.65 -0.3 7.3 -2 9 C-1.34 6.03 -0.68 3.06 0 0 Z " fill="#6C697E" transform="translate(809,731)"/>
<path d="M0 0 C2.64 0.33 5.28 0.66 8 1 C8 1.66 8 2.32 8 3 C5.03 3 2.06 3 -1 3 C-0.67 2.01 -0.34 1.02 0 0 Z " fill="#E5F8FC" transform="translate(590,507)"/>
<path d="M0 0 C0.66 0 1.32 0 2 0 C0.25 5.75 0.25 5.75 -2 8 C-2.33 6.35 -2.66 4.7 -3 3 C-2.01 3 -1.02 3 0 3 C0 2.01 0 1.02 0 0 Z " fill="#8C929D" transform="translate(398,443)"/>
<path d="M0 0 C-0.99 1.485 -0.99 1.485 -2 3 C-4.97 2.67 -7.94 2.34 -11 2 C-11 1.67 -11 1.34 -11 1 C-7.27569643 0.30710631 -3.78916254 -0.11144596 0 0 Z " fill="#878E99" transform="translate(723,384)"/>
<path d="M0 0 C2.375 0.25 2.375 0.25 5 1 C6.3125 3.0625 6.3125 3.0625 7 5 C4.625 4.75 4.625 4.75 2 4 C0.6875 1.9375 0.6875 1.9375 0 0 Z " fill="#595D71" transform="translate(445,801)"/>
<path d="M0 0 C2 3 2 3 2 6 C1.01 6 0.02 6 -1 6 C-1.33 6.66 -1.66 7.32 -2 8 C-2.33 7.01 -2.66 6.02 -3 5 C-1.5625 2.3125 -1.5625 2.3125 0 0 Z " fill="#6C6A80" transform="translate(741,690)"/>
<path d="M0 0 C0.99 0.66 1.98 1.32 3 2 C1.1875 4 1.1875 4 -1 6 C-1.99 6 -2.98 6 -4 6 C-2.84826645 3.53199953 -1.95216435 1.95216435 0 0 Z " fill="#7EA5AB" transform="translate(651,600)"/>
<path d="M0 0 C0.66 0.33 1.32 0.66 2 1 C1.3125 2.9375 1.3125 2.9375 0 5 C-2.625 5.75 -2.625 5.75 -5 6 C-3.35 4.02 -1.7 2.04 0 0 Z " fill="#8AABB4" transform="translate(578,514)"/>
<path d="M0 0 C1.65 0 3.3 0 5 0 C3.71937515 1.7074998 2.38232443 3.37373596 1 5 C0.34 5 -0.32 5 -1 5 C-0.67 3.35 -0.34 1.7 0 0 Z " fill="#77A4AA" transform="translate(708,464)"/>
<path d="M0 0 C0.66 0.66 1.32 1.32 2 2 C0.02 2.99 0.02 2.99 -2 4 C-1.34 4.33 -0.68 4.66 0 5 C-0.33 5.66 -0.66 6.32 -1 7 C-1.99 6.34 -2.98 5.68 -4 5 C-4 3.68 -4 2.36 -4 1 C-2.125 0.375 -2.125 0.375 0 0 Z " fill="#8B90A1" transform="translate(778,409)"/>
<path d="M0 0 C0.99 0.33 1.98 0.66 3 1 C2.34 2.32 1.68 3.64 1 5 C0.34 5 -0.32 5 -1 5 C-1.33 5.99 -1.66 6.98 -2 8 C-2.33 7.34 -2.66 6.68 -3 6 C-2.06553465 3.96855359 -1.06775224 1.96466413 0 0 Z " fill="#6A6782" transform="translate(801,751)"/>
<path d="M0 0 C0.99 0.33 1.98 0.66 3 1 C3.73046875 2.84765625 3.73046875 2.84765625 4.1875 5.0625 C4.34605469 5.79597656 4.50460937 6.52945313 4.66796875 7.28515625 C4.83232422 8.13400391 4.83232422 8.13400391 5 9 C1.7457985 6.16569547 0.4793247 4.31392226 0 0 Z " fill="#6C697B" transform="translate(459,719)"/>
<path d="M0 0 C1.65 0.33 3.3 0.66 5 1 C3 3 3 3 0 5 C-0.99 4.67 -1.98 4.34 -3 4 C-2.01 2.68 -1.02 1.36 0 0 Z " fill="#73A1AA" transform="translate(642,530)"/>
<path d="M0 0 C1 4 1 4 -0.4375 6.75 C-1.2109375 7.86375 -1.2109375 7.86375 -2 9 C-2.66 8.67 -3.32 8.34 -4 8 C-2.68 5.36 -1.36 2.72 0 0 Z " fill="#86ACB2" transform="translate(570,522)"/>
<path d="M0 0 C0.33 0 0.66 0 1 0 C1.25 3.3125 1.25 3.3125 1 7 C-0.32 7.99 -1.64 8.98 -3 10 C-2.01 6.7 -1.02 3.4 0 0 Z " fill="#D5EFF1" transform="translate(751,496)"/>
<path d="M0 0 C0.99 0 1.98 0 3 0 C3 3 3 3 1 6 C0.34 6 -0.32 6 -1 6 C-1.625 4.125 -1.625 4.125 -2 2 C-1.34 1.34 -0.68 0.68 0 0 Z " fill="#7CA9B3" transform="translate(700,471)"/>
<path d="M0 0 C1.98 0.495 1.98 0.495 4 1 C2.35 2.65 0.7 4.3 -1 6 C-0.67 4.02 -0.34 2.04 0 0 Z " fill="#888D9E" transform="translate(413,420)"/>
<path d="M0 0 C3 2 3 2 3.6875 4.625 C3.8421875 5.800625 3.8421875 5.800625 4 7 C3.01 7.495 3.01 7.495 2 8 C1.34 7.67 0.68 7.34 0 7 C0 4.69 0 2.38 0 0 Z " fill="#F2F1F7" transform="translate(777,416)"/>
<path d="M0 0 C0 0.99 0 1.98 0 3 C-5.75 2.25 -5.75 2.25 -8 0 C-4.71303767 -0.79953138 -3.28976808 -1.09658936 0 0 Z " fill="#EAEFF4" transform="translate(480,388)"/>
</svg>
